<?xml version="1.0" encoding="utf-8"?>
<!-- Generator: Adobe Illustrator 16.0.0, SVG Export Plug-In . SVG Version: 6.00 Build 0)  -->
<!DOCTYPE svg PUBLIC "-//W3C//DTD SVG 1.1//EN" "http://www.w3.org/Graphics/SVG/1.1/DTD/svg11.dtd">
<svg version="1.1" id="Ebene_1" xmlns="http://www.w3.org/2000/svg" xmlns:xlink="http://www.w3.org/1999/xlink" x="0px" y="0px"
	 width="128px" height="128px" viewBox="696.15 313.695 128 128" enable-background="new 696.15 313.695 128 128"
	 xml:space="preserve">
<g id="Couch" display="none">
	<g display="inline">
		<path d="M797.5,402.5v10h-75v-10H797.5 M800,400h-80v15h80V400L800,400z"/>
	</g>
	<g display="inline">
		<path d="M727.5,392.5v7.5h-5v-7.5H727.5 M730,390h-10v12.5h10V390L730,390z"/>
	</g>
	<g display="inline">
		<path d="M797.5,392.5v7.5h-5v-7.5H797.5 M800,390h-10v12.5h10V390L800,390z"/>
	</g>
	<g display="inline">
		<path d="M793.75,380v9.984h-1.25h-2.49l-0.01,2.49l-0.031,7.486l-59.926,0.039V392.5v-2.473L727.57,390l-1.342-0.015V380H793.75
			 M796.25,377.5h-72.521v14.958l3.812,0.042v10l64.918-0.042l0.041-9.974h3.75V377.5L796.25,377.5z"/>
	</g>
	
		<line display="inline" fill="none" stroke="#000000" stroke-width="1.25" stroke-miterlimit="10" x1="760" y1="378.688" x2="760" y2="412.5"/>
	<g display="inline">
		<path d="M728.75,413.75v5h-1.25v-5H728.75 M730,412.5h-3.75v7.5H730V412.5L730,412.5z"/>
	</g>
	<g display="inline">
		<path d="M792.5,413.75v5h-1.25v-5H792.5 M793.75,412.5H790v7.5h3.75V412.5L793.75,412.5z"/>
	</g>
</g>
<g id="WeMo" display="none">
	<g display="inline">
		<path d="M782.5,342.5v75h-45.016v-75H782.5 M785,340h-50.016v80H785V340L785,340z"/>
	</g>
	<g display="inline">
		<path d="M760,378.75c8.961,0,16.25,7.29,16.25,16.25s-7.289,16.25-16.25,16.25c-8.959,0-16.25-7.29-16.25-16.25
			S751.041,378.75,760,378.75 M760,377.5c-9.664,0-17.5,7.835-17.5,17.5s7.836,17.5,17.5,17.5c9.666,0,17.5-7.835,17.5-17.5
			S769.666,377.5,760,377.5L760,377.5z"/>
	</g>
	<circle display="inline" cx="753.771" cy="395" r="2.5"/>
	<circle display="inline" cx="766.25" cy="395" r="2.5"/>
	
		<line display="inline" fill="none" stroke="#000000" stroke-width="2.5" stroke-miterlimit="10" x1="742.5" y1="355" x2="777.5" y2="355"/>
	
		<line display="inline" fill="none" stroke="#000000" stroke-width="2.5" stroke-miterlimit="10" x1="742.5" y1="365" x2="777.5" y2="365"/>
</g>
<g id="Deckenlampe" display="none">
	<g display="inline">
		<path d="M767.994,367.5l8.891,40h-53.768l8.889-40H767.994 M770,365h-40l-10,45h60L770,365L770,365z"/>
	</g>
	
		<line display="inline" fill="none" stroke="#000000" stroke-width="2.5" stroke-miterlimit="10" x1="750" y1="366" x2="750" y2="340.375"/>
	<g display="inline">
		<path d="M741.376,409.978l17.518,0.143c-0.113,4.731-3.998,8.547-8.758,8.547C745.33,418.667,741.416,414.775,741.376,409.978
			 M740.195,408.718c-0.045,0.391-0.068,0.786-0.068,1.188c0,5.527,4.48,10.01,10.01,10.01s10.012-4.482,10.012-10.01
			c0-0.348-0.02-0.689-0.055-1.027L740.195,408.718L740.195,408.718z"/>
	</g>
	
		<line display="inline" fill="none" stroke="#000000" stroke-width="1.25" stroke-miterlimit="10" x1="734.937" y1="340.646" x2="764.853" y2="340.646"/>
</g>
<g id="Jalousien" display="none">
	<g display="inline">
		<path d="M794.017,347.5l-5.061,5.123l-62.984-0.112l4.947-5.011H794.017 M800,345h-70.125L720,355l70,0.125L800,345L800,345z"/>
	</g>
	<g display="inline">
		<path d="M794.017,362.375l-5.061,5.123l-62.984-0.112l4.947-5.011H794.017 M800,359.875h-70.125l-9.875,10L790,370L800,359.875
			L800,359.875z"/>
	</g>
	<g display="inline">
		<path d="M794.017,377.5l-5.061,5.123l-62.984-0.112l4.947-5.011H794.017 M800,375h-70.125L720,385l70,0.125L800,375L800,375z"/>
	</g>
	<g display="inline">
		<path d="M794.017,392.5l-5.061,5.123l-62.984-0.112l4.947-5.011H794.017 M800,390h-70.125L720,400l70,0.125L800,390L800,390z"/>
	</g>
	<g display="inline">
		<path d="M794.017,407.5l-5.061,5.123l-62.984-0.112l4.947-5.011H794.017 M800,405h-70.125L720,415l70,0.125L800,405L800,405z"/>
	</g>
	
		<line display="inline" fill="none" stroke="#000000" stroke-width="1.25" stroke-miterlimit="10" x1="780.011" y1="355.042" x2="780.011" y2="365.042"/>
	
		<line display="inline" fill="none" stroke="#000000" stroke-width="1.25" stroke-miterlimit="10" x1="780.011" y1="340.073" x2="780.011" y2="350.073"/>
	
		<line display="inline" fill="none" stroke="#000000" stroke-width="1.25" stroke-miterlimit="10" x1="780.011" y1="370.026" x2="780.011" y2="380.026"/>
	
		<line display="inline" fill="none" stroke="#000000" stroke-width="1.25" stroke-miterlimit="10" x1="780.011" y1="385.031" x2="780.011" y2="395.032"/>
	
		<line display="inline" fill="none" stroke="#000000" stroke-width="1.25" stroke-miterlimit="10" x1="780.011" y1="399.985" x2="780.011" y2="409.985"/>
	
		<line display="inline" fill="none" stroke="#000000" stroke-width="1.25" stroke-miterlimit="10" x1="780.011" y1="414.99" x2="780.011" y2="420.012"/>
	
		<line display="inline" fill="none" stroke="#000000" stroke-width="1.25" stroke-miterlimit="10" x1="740.011" y1="355.042" x2="740.011" y2="365.042"/>
	
		<line display="inline" fill="none" stroke="#000000" stroke-width="1.25" stroke-miterlimit="10" x1="740.011" y1="340.073" x2="740.011" y2="350.073"/>
	
		<line display="inline" fill="none" stroke="#000000" stroke-width="1.25" stroke-miterlimit="10" x1="740.011" y1="370.026" x2="740.011" y2="380.026"/>
	
		<line display="inline" fill="none" stroke="#000000" stroke-width="1.25" stroke-miterlimit="10" x1="740.011" y1="385.031" x2="740.011" y2="395.032"/>
	
		<line display="inline" fill="none" stroke="#000000" stroke-width="1.25" stroke-miterlimit="10" x1="740.011" y1="399.985" x2="740.011" y2="409.985"/>
	
		<line display="inline" fill="none" stroke="#000000" stroke-width="1.25" stroke-miterlimit="10" x1="740.011" y1="414.99" x2="740.011" y2="420.012"/>
</g>
<g id="Dashboard" display="none">
	<g display="inline">
		<path d="M737.5,342.5v15h-15v-15H737.5 M740,340h-20v20h20V340L740,340z"/>
	</g>
	<g display="inline">
		<path d="M767.5,342.5v15h-15v-15H767.5 M770,340h-20v20h20V340L770,340z"/>
	</g>
	<g display="inline">
		<path d="M797.5,342.5v15h-15v-15H797.5 M800,340h-20v20h20V340L800,340z"/>
	</g>
	<g display="inline">
		<path d="M737.5,372.5v15h-15v-15H737.5 M740,370h-20v20h20V370L740,370z"/>
	</g>
	<g display="inline">
		<path d="M767.5,372.5v15h-15v-15H767.5 M770,370h-20v20h20V370L770,370z"/>
	</g>
	<g display="inline">
		<path d="M797.5,372.5v15h-15v-15H797.5 M800,370h-20v20h20V370L800,370z"/>
	</g>
	<g display="inline">
		<path d="M737.5,402.5v15h-15v-15H737.5 M740,400h-20v20h20V400L740,400z"/>
	</g>
	<g display="inline">
		<path d="M767.5,402.5v15h-15v-15H767.5 M770,400h-20v20h20V400L770,400z"/>
	</g>
	<g display="inline">
		<path d="M797.5,402.5v15h-15v-15H797.5 M800,400h-20v20h20V400L800,400z"/>
	</g>
</g>
<g id="Einstellungen" display="none">
	<g display="inline">
		<g>
			<path fill="#86878A" d="M780.207,343.891c0.391,1.242,1.354,2.299,2.588,2.757l5.107,2.187c0.564,0.285,1.201,0.435,1.855,0.435
				c0.674,0,1.336-0.16,1.93-0.459c-0.646,1.167-0.734,2.636-0.18,3.86l1.732,4.35c0.434,1.281,1.498,2.28,2.77,2.676
				c-1.252,0.39-2.311,1.362-2.762,2.608l-2.119,4.999c-0.605,1.188-0.58,2.621,0.012,3.797c-0.625-0.341-1.342-0.526-2.072-0.526
				c-0.613,0-1.219,0.131-1.762,0.381l-4.447,1.776c-1.27,0.438-2.26,1.501-2.654,2.766c-0.393-1.249-1.365-2.305-2.611-2.756
				l-4.979-2.114c-0.562-0.275-1.191-0.42-1.836-0.42c-0.682,0-1.352,0.163-1.953,0.471c0.633-1.169,0.707-2.631,0.145-3.843
				l-1.797-4.471c-0.428-1.27-1.488-2.266-2.775-2.668c1.26-0.389,2.314-1.364,2.764-2.615l2.168-5.055
				c0.582-1.186,0.549-2.608-0.033-3.772c0.631,0.347,1.357,0.536,2.104,0.536c0.609,0,1.211-0.13,1.75-0.377l4.393-1.754
				C778.816,346.223,779.812,345.159,780.207,343.891 M782.117,340.083h-3.82c-0.494,0-0.904,0.407-0.904,0.902v1.699
				c0,0.494-0.393,1.015-0.869,1.15l-4.58,1.83c-0.16,0.084-0.352,0.125-0.543,0.125c-0.334,0-0.678-0.12-0.902-0.344l-1.215-1.221
				c-0.18-0.177-0.412-0.265-0.645-0.265s-0.465,0.088-0.641,0.265l-2.697,2.701c-0.354,0.35-0.354,0.925,0,1.278l1.121,1.12
				c0.352,0.352,0.432,0.994,0.191,1.424l-2.26,5.265c-0.137,0.479-0.658,0.867-1.16,0.867h-1.66c-0.49,0-0.902,0.406-0.902,0.903
				v3.82c0,0.497,0.412,0.9,0.902,0.9h1.66c0.502,0.006,1.023,0.392,1.154,0.873l1.879,4.673c0.234,0.438,0.137,1.081-0.209,1.435
				l-1.248,1.245c-0.352,0.35-0.352,0.925,0,1.275l2.705,2.705c0.176,0.174,0.406,0.262,0.639,0.262c0.23,0,0.465-0.087,0.643-0.262
				l1.166-1.176c0.219-0.214,0.543-0.328,0.859-0.328c0.197,0,0.395,0.045,0.561,0.139l5.182,2.2
				c0.48,0.144,0.869,0.666,0.869,1.158v1.77c0,0.497,0.41,0.903,0.904,0.903h3.82c0.496,0,0.902-0.407,0.902-0.903v-1.77
				c0-0.492,0.395-1.014,0.863-1.151l4.635-1.85c0.164-0.087,0.355-0.129,0.551-0.129c0.328,0,0.662,0.12,0.885,0.341l1.328,1.319
				c0.172,0.177,0.4,0.265,0.633,0.265c0.23,0,0.463-0.088,0.639-0.265l2.707-2.701c0.35-0.352,0.35-0.926,0-1.277l-1.246-1.234
				c-0.344-0.354-0.432-0.993-0.176-1.42l2.217-5.227c0.143-0.479,0.666-0.864,1.164-0.864h1.805c0.496,0,0.896-0.408,0.896-0.906
				v-3.82c0-0.497-0.4-0.903-0.896-0.903h-1.805c-0.498,0-1.016-0.388-1.15-0.872l-1.807-4.539c-0.229-0.443-0.131-1.086,0.227-1.44
				l1.295-1.302c0.355-0.348,0.355-0.923,0-1.277l-2.701-2.702c-0.176-0.176-0.406-0.264-0.639-0.264s-0.463,0.088-0.639,0.264
				l-1.189,1.192c-0.219,0.213-0.541,0.328-0.855,0.328c-0.199,0-0.396-0.046-0.561-0.144l-5.312-2.275
				c-0.471-0.147-0.865-0.672-0.865-1.166v-1.699C783.019,340.49,782.613,340.083,782.117,340.083L782.117,340.083z"/>
		</g>
		<g>
			<path fill="#86878A" d="M753.287,371.413l1.549,0.566l-0.186,0.504c-0.656,1.807-0.066,3.95,1.404,5.18l5.543,5.215
				c0.854,0.916,2.111,1.456,3.416,1.456c0.654,0,1.279-0.132,1.896-0.409l0.469-0.218l0.695,1.498l-0.639,0.299
				c-1.76,0.804-2.873,2.74-2.705,4.659l0.184,6.403c-0.068,1.953,1.18,3.823,3.037,4.502l0.629,0.229l-0.568,1.552l-0.633-0.23
				c-0.488-0.178-1.008-0.269-1.543-0.269c-1.428,0-2.773,0.626-3.646,1.685l-5.09,5.447c-1.426,1.315-1.881,3.499-1.053,5.323
				l0.252,0.54l-1.49,0.691l-0.334-0.713c-0.756-1.597-2.465-2.668-4.252-2.668c-0.133,0-0.264,0.006-0.395,0.018l-6.559,0.194
				c-0.033,0-0.068-0.001-0.104-0.001c-1.924,0-3.723,1.253-4.371,3.043l-0.215,0.592l-1.547-0.563l0.221-0.604
				c0.654-1.808,0.053-3.949-1.432-5.176l-5.42-5.062c-0.857-0.903-2.111-1.438-3.402-1.438c-0.658,0-1.285,0.133-1.904,0.413
				l-0.428,0.201l-0.693-1.491l0.594-0.275c1.727-0.826,2.809-2.757,2.637-4.649l-0.211-6.61c0.057-1.926-1.184-3.787-3.047-4.493
				l-0.451-0.165l0.562-1.544l0.443,0.162c0.492,0.181,1.014,0.272,1.553,0.272c1.406,0,2.781-0.641,3.645-1.686l5.176-5.498
				c1.41-1.337,1.848-3.534,1.027-5.31l-0.16-0.346l1.492-0.695l0.242,0.527c0.754,1.609,2.473,2.691,4.277,2.691
				c0.125,0,0.252-0.005,0.379-0.016l6.48-0.194c0.039,0.001,0.078,0.001,0.117,0.001c1.92,0,3.719-1.25,4.373-3.042
				L753.287,371.413 M752.234,367.914c-0.502,0-0.979,0.309-1.158,0.805l-0.789,2.167c-0.221,0.603-0.906,1.069-1.555,1.069
				c-0.031,0-0.064-0.001-0.098-0.003l-6.701,0.201c-0.059,0.008-0.117,0.012-0.18,0.012c-0.619,0-1.297-0.401-1.561-0.963
				l-0.98-2.125c-0.215-0.45-0.658-0.713-1.121-0.713c-0.174,0-0.352,0.037-0.52,0.116l-4.701,2.189
				c-0.613,0.283-0.881,1.017-0.6,1.631l0.91,1.954c0.285,0.615,0.088,1.47-0.418,1.907l-5.336,5.669
				c-0.299,0.406-0.846,0.65-1.373,0.65c-0.178,0-0.354-0.028-0.518-0.088l-2.113-0.77c-0.137-0.05-0.279-0.074-0.418-0.074
				c-0.5,0-0.977,0.309-1.158,0.805l-1.777,4.875c-0.23,0.635,0.104,1.343,0.73,1.573l2.117,0.772
				c0.639,0.242,1.127,0.979,1.074,1.651l0.217,6.842c0.094,0.668-0.33,1.443-0.938,1.734l-2.172,1.006
				c-0.615,0.283-0.885,1.019-0.596,1.627l2.191,4.714c0.211,0.444,0.658,0.708,1.125,0.708c0.172,0,0.344-0.036,0.51-0.111
				l2.039-0.956c0.193-0.088,0.41-0.129,0.629-0.129c0.479,0,0.969,0.198,1.268,0.549l5.594,5.222
				c0.547,0.41,0.801,1.254,0.572,1.884l-0.828,2.26c-0.229,0.635,0.104,1.344,0.732,1.574l4.879,1.779
				c0.139,0.05,0.279,0.074,0.418,0.074c0.5,0,0.977-0.308,1.156-0.805l0.824-2.26c0.217-0.601,0.908-1.07,1.553-1.07
				c0.029,0,0.059,0.001,0.088,0.003l6.775-0.201c0.062-0.009,0.129-0.013,0.191-0.013c0.623,0,1.277,0.396,1.541,0.952l1.08,2.303
				c0.199,0.445,0.645,0.708,1.105,0.708c0.172,0,0.348-0.037,0.516-0.116l4.713-2.187c0.611-0.285,0.881-1.017,0.596-1.628
				l-1.012-2.157c-0.275-0.613-0.09-1.469,0.434-1.898l5.268-5.638c0.303-0.405,0.848-0.646,1.373-0.646
				c0.178,0,0.354,0.028,0.518,0.088l2.305,0.841c0.135,0.049,0.271,0.072,0.408,0.072c0.502,0,0.977-0.312,1.158-0.814l1.783-4.875
				c0.229-0.634-0.094-1.342-0.73-1.573l-2.297-0.838c-0.639-0.233-1.123-0.971-1.064-1.647l-0.189-6.637
				c-0.09-0.674,0.336-1.448,0.957-1.732l2.258-1.057c0.619-0.281,0.887-1.018,0.6-1.633l-2.188-4.708
				c-0.211-0.447-0.656-0.709-1.121-0.709c-0.174,0-0.348,0.037-0.516,0.114l-2.072,0.966c-0.193,0.087-0.41,0.128-0.631,0.128
				c-0.479,0-0.973-0.198-1.266-0.552l-5.719-5.381c-0.537-0.407-0.789-1.261-0.561-1.891l0.791-2.169
				c0.232-0.631-0.1-1.34-0.732-1.571l-4.883-1.784C752.511,367.937,752.371,367.914,752.234,367.914L752.234,367.914z"/>
		</g>
	</g>
</g>
<g id="Home" display="none">
	<g display="inline">
		<path fill="#3E3639" d="M759.835,344.081l26.93,27.014v45.742l-53.916-0.028v-45.71L759.835,344.081 M759.837,339.833
			l-29.988,30.021v49.952l59.916,0.031v-49.983L759.837,339.833L759.837,339.833z"/>
	</g>
</g>
<g id="Schreibtischlampe" display="none">
	
		<line display="inline" fill="none" stroke="#000000" stroke-width="2.5" stroke-miterlimit="10" x1="740" y1="418.73" x2="780.015" y2="418.73"/>
	
		<line display="inline" fill="none" stroke="#000000" stroke-width="2.5" stroke-miterlimit="10" x1="762.265" y1="344.655" x2="778.291" y2="356.816"/>
	
		<line display="inline" fill="none" stroke="#000000" stroke-width="2.5" stroke-miterlimit="10" x1="724.867" y1="378.211" x2="758.056" y2="344.728"/>
	
		<line display="inline" fill="none" stroke="#000000" stroke-width="2.5" stroke-miterlimit="10" x1="760.062" y1="418.75" x2="724.955" y2="382.011"/>
	<g display="inline">
		<path d="M780.111,362.21l15.104,17.669h-30.375L780.111,362.21 M780.121,358.375l-20.746,24.005h41.266L780.121,358.375
			L780.121,358.375z"/>
	</g>
	<g display="inline">
		<path d="M773.152,382.375l13.654,0.023c-0.166,3.622-3.164,6.518-6.824,6.518C776.312,388.917,773.308,386.008,773.152,382.375
			 M771.951,381.123c-0.035,0.314-0.055,0.634-0.055,0.958c0,4.466,3.617,8.085,8.086,8.085c4.465,0,8.082-3.62,8.082-8.085
			c0-0.279,0.006-0.658-0.023-0.931L771.951,381.123L771.951,381.123z"/>
	</g>
	<g display="inline">
		<path d="M760.062,341.25c1.068,0,1.938,0.869,1.938,1.938s-0.869,1.938-1.938,1.938s-1.938-0.869-1.938-1.938
			S758.994,341.25,760.062,341.25 M760.062,340c-1.762,0-3.188,1.427-3.188,3.188s1.426,3.188,3.188,3.188s3.188-1.427,3.188-3.188
			S761.824,340,760.062,340L760.062,340z"/>
	</g>
	<g display="inline">
		<path d="M780.146,356.583c1.068,0,1.938,0.869,1.938,1.938s-0.869,1.938-1.938,1.938s-1.938-0.869-1.938-1.938
			S779.078,356.583,780.146,356.583 M780.146,355.333c-1.762,0-3.188,1.427-3.188,3.188s1.426,3.188,3.188,3.188
			s3.188-1.427,3.188-3.188S781.906,355.333,780.146,355.333L780.146,355.333z"/>
	</g>
	<g display="inline">
		<path d="M723.208,378.125c1.068,0,1.938,0.869,1.938,1.938S724.277,382,723.208,382s-1.938-0.869-1.938-1.938
			S722.14,378.125,723.208,378.125 M723.208,376.875c-1.76,0-3.188,1.427-3.188,3.188s1.428,3.188,3.188,3.188
			c1.762,0,3.188-1.427,3.188-3.188S724.97,376.875,723.208,376.875L723.208,376.875z"/>
	</g>
</g>
<g id="Schreibtischlampe_2" display="none">
	
		<line display="inline" fill="none" stroke="#000000" stroke-width="2.5" stroke-miterlimit="10" x1="740" y1="418.73" x2="780.015" y2="418.73"/>
	
		<line display="inline" fill="none" stroke="#000000" stroke-width="2.5" stroke-miterlimit="10" x1="762.343" y1="344.188" x2="776.343" y2="358.172"/>
	
		<line display="inline" fill="none" stroke="#000000" stroke-width="2.5" stroke-miterlimit="10" x1="724.171" y1="377.781" x2="757.812" y2="344.188"/>
	
		<line display="inline" fill="none" stroke="#000000" stroke-width="2.5" stroke-miterlimit="10" x1="760.062" y1="418.75" x2="723.687" y2="382.297"/>
	<g display="inline">
		<path d="M781.765,374.917l6.514,0.011c-0.33,1.494-1.664,2.614-3.254,2.614C783.429,377.542,782.091,376.416,781.765,374.917
			 M780.47,373.665c-0.02,0.178-0.029,0.359-0.029,0.543c0,2.532,2.051,4.584,4.584,4.584c2.529,0,4.58-2.052,4.58-4.584
			c0-0.158,0.004-0.373-0.014-0.527L780.47,373.665L780.47,373.665z"/>
	</g>
	<g display="inline">
		<path d="M760.062,341.25c1.068,0,1.938,0.869,1.938,1.938s-0.869,1.938-1.938,1.938s-1.938-0.869-1.938-1.938
			S758.994,341.25,760.062,341.25 M760.062,340c-1.762,0-3.188,1.427-3.188,3.188s1.426,3.188,3.188,3.188s3.188-1.427,3.188-3.188
			S761.824,340,760.062,340L760.062,340z"/>
	</g>
	<g display="inline">
		<path d="M778.193,358.036c1.066,0,1.938,0.869,1.938,1.938c0,1.069-0.869,1.938-1.938,1.938c-1.07,0-1.939-0.869-1.939-1.938
			C776.253,358.905,777.125,358.036,778.193,358.036 M778.193,356.786c-1.762,0-3.189,1.427-3.189,3.188
			c0,1.761,1.428,3.188,3.189,3.188c1.76,0,3.188-1.427,3.188-3.188C781.38,358.213,779.953,356.786,778.193,356.786
			L778.193,356.786z"/>
	</g>
	<g display="inline">
		<path d="M723.208,378.125c1.068,0,1.938,0.869,1.938,1.938S724.277,382,723.208,382s-1.938-0.869-1.938-1.938
			S722.14,378.125,723.208,378.125 M723.208,376.875c-1.76,0-3.188,1.427-3.188,3.188s1.428,3.188,3.188,3.188
			c1.762,0,3.188-1.427,3.188-3.188S724.97,376.875,723.208,376.875L723.208,376.875z"/>
	</g>
	<g display="inline">
		<path d="M785,362.5c6.037,0,11.088,4.302,12.25,10h-24.498C773.914,366.802,778.964,362.5,785,362.5 M785,360
			c-8.283,0-15,6.716-15,15h30C800,366.716,793.285,360,785,360L785,360z"/>
	</g>
</g>
<g id="Lampe" display="none">
	<g display="inline">
		<path d="M752.134,390.009l15.736,0.027l4.217,27.313l-24.322,0.135L752.134,390.009 M750,387.505L744.833,420l30.168-0.167
			l-4.986-32.294L750,387.505L750,387.505z"/>
	</g>
	<g display="inline">
		<path d="M736.945,342.5l46.006,0.015l9,45l-63.908-0.015L736.945,342.5 M734.89,340L725,390l70,0.016l-10-50L734.89,340
			L734.89,340z"/>
	</g>
	
		<line display="inline" fill="none" stroke="#000000" stroke-width="1.25" stroke-miterlimit="10" x1="740" y1="350.083" x2="740" y2="380.083"/>
	
		<line display="inline" fill="none" stroke="#000000" stroke-width="1.25" stroke-miterlimit="10" x1="750.001" y1="350.083" x2="750.001" y2="380.083"/>
	
		<line display="inline" fill="none" stroke="#000000" stroke-width="1.25" stroke-miterlimit="10" x1="760.001" y1="350.083" x2="760.001" y2="380.083"/>
	
		<line display="inline" fill="none" stroke="#000000" stroke-width="1.25" stroke-miterlimit="10" x1="770.003" y1="350.083" x2="770.003" y2="380.083"/>
	
		<line display="inline" fill="none" stroke="#000000" stroke-width="1.25" stroke-miterlimit="10" x1="780.003" y1="350.083" x2="780.003" y2="380.083"/>
</g>
<g id="Stehlampe" display="none">
	
		<line display="inline" fill="none" stroke="#000000" stroke-width="2.5" stroke-miterlimit="10" x1="750" y1="418.792" x2="790" y2="418.792"/>
	
		<line display="inline" fill="none" stroke="#000000" stroke-width="1.25" stroke-miterlimit="10" x1="780" y1="341.405" x2="780" y2="356.359"/>
	<polyline display="inline" fill="none" stroke="#000000" stroke-width="2.5" stroke-miterlimit="10" points="760,419.25 
		760,340.656 780.625,340.656 	"/>
	<g display="inline">
		<path d="M780,356.722l6.99,7.012h-14.004L780,356.722 M780,354.953l-10.031,10.031H790L780,354.953L780,354.953z"/>
	</g>
	<g display="inline">
		<path d="M778.136,365l3.904,0.007c-0.33,0.75-1.08,1.274-1.951,1.274C779.216,366.281,778.464,365.754,778.136,365
			 M776.73,363.748c-0.016,0.131-0.021,0.265-0.021,0.401c0,1.868,1.514,3.382,3.381,3.382c1.869,0,3.383-1.514,3.383-3.382
			c0-0.117,0.002-0.276-0.012-0.389L776.73,363.748L776.73,363.748z"/>
	</g>
</g>
<g id="Stehlampe_2" display="none">
	
		<line display="inline" fill="none" stroke="#000000" stroke-width="2.5" stroke-miterlimit="10" x1="755.001" y1="418.792" x2="785.001" y2="418.792"/>
	
		<line display="inline" fill="none" stroke="#000000" stroke-width="2.5" stroke-miterlimit="10" x1="770" y1="346.125" x2="770" y2="340.016"/>
	
		<line display="inline" fill="none" stroke="#000000" stroke-width="2.5" stroke-miterlimit="10" x1="770" y1="419.25" x2="770" y2="373.667"/>
	<g display="inline">
		<path d="M778.201,347.486l8.367,25.011l-33.098-0.035l8.346-24.963L778.201,347.486 M780,344.984L760.015,345L750,374.958
			L790.041,375L780,344.984L780,344.984z"/>
	</g>
	
		<line display="inline" fill="none" stroke="#000000" stroke-width="1.25" stroke-miterlimit="10" x1="780" y1="374.453" x2="780" y2="384.984"/>
</g>
<g id="Sonne" display="none">
	<g display="inline">
		<path d="M760,375c2.758,0,5,2.243,5,5s-2.242,5-5,5c-2.756,0-5-2.243-5-5S757.244,375,760,375 M760,370c-5.521,0-10,4.477-10,10
			s4.479,10,10,10s10-4.477,10-10S765.521,370,760,370L760,370z"/>
	</g>
	
		<line display="inline" fill="none" stroke="#000000" stroke-width="5" stroke-miterlimit="10" x1="760" y1="340.125" x2="760" y2="360.125"/>
	
		<line display="inline" fill="none" stroke="#000000" stroke-width="5" stroke-miterlimit="10" x1="760" y1="400" x2="760" y2="420"/>
	
		<line display="inline" fill="none" stroke="#000000" stroke-width="5" stroke-miterlimit="10" x1="799.937" y1="380.062" x2="779.937" y2="380.062"/>
	
		<line display="inline" fill="none" stroke="#000000" stroke-width="5" stroke-miterlimit="10" x1="740.062" y1="380.062" x2="720.062" y2="380.062"/>
	
		<line display="inline" fill="none" stroke="#000000" stroke-width="5" stroke-miterlimit="10" x1="788.24" y1="351.822" x2="774.097" y2="365.965"/>
	
		<line display="inline" fill="none" stroke="#000000" stroke-width="5" stroke-miterlimit="10" x1="745.902" y1="394.161" x2="731.759" y2="408.303"/>
	
		<line display="inline" fill="none" stroke="#000000" stroke-width="5" stroke-miterlimit="10" x1="731.759" y1="351.822" x2="745.902" y2="365.964"/>
	
		<line display="inline" fill="none" stroke="#000000" stroke-width="5" stroke-miterlimit="10" x1="774.097" y1="394.161" x2="788.24" y2="408.303"/>
</g>
<g id="Thermometer" display="none">
	<g display="inline">
		<path d="M760.005,342.5c4.137,0,7.5,3.364,7.5,7.5v43.844v0.969l0.654,0.716l0.076,0.083l0.074,0.083l0.084,0.076
			c2.582,2.362,4.064,5.724,4.064,9.223c0,6.89-5.605,12.495-12.496,12.495c-6.889,0-12.494-5.605-12.494-12.495
			c0-3.551,1.52-6.947,4.168-9.317l0.832-0.745l0.002-1.117L752.505,350C752.505,345.864,755.871,342.5,760.005,342.5 M760.005,340
			c-5.521,0-10,4.477-10,10l-0.035,43.815c-3.068,2.746-5.002,6.737-5.002,11.18c0,8.281,6.715,14.995,14.996,14.995
			s14.994-6.713,14.994-14.995c0-4.383-1.879-8.326-4.877-11.068l-0.076-0.083V350C770.005,344.477,765.529,340,760.005,340
			L760.005,340z"/>
	</g>
	<g display="inline">
		<circle cx="760" cy="405.125" r="5"/>
	</g>
	
		<line display="inline" fill="none" stroke="#000000" stroke-width="2.5" stroke-miterlimit="10" x1="760" y1="400.125" x2="760" y2="350.042"/>
	
		<line display="inline" fill="none" stroke="#000000" stroke-width="1.25" stroke-miterlimit="10" x1="755" y1="390" x2="765" y2="390"/>
	
		<line display="inline" fill="none" stroke="#000000" stroke-width="1.25" stroke-miterlimit="10" x1="755" y1="380" x2="765" y2="380"/>
	
		<line display="inline" fill="none" stroke="#000000" stroke-width="1.25" stroke-miterlimit="10" x1="755" y1="370" x2="765" y2="370"/>
	
		<line display="inline" fill="none" stroke="#000000" stroke-width="1.25" stroke-miterlimit="10" x1="755" y1="359.999" x2="765" y2="359.999"/>
</g>
<g id="Schreibtisch" display="none">
	<g display="inline">
		<path d="M797.5,381.25v2.5h-75v-2.5H797.5 M800,378.75h-80v7.5h80V378.75L800,378.75z"/>
	</g>
	<g display="inline">
		<path d="M726.25,385.031v33.75H725v-33.75H726.25 M727.5,383.781h-3.75v36.25h3.75V383.781L727.5,383.781z"/>
	</g>
	<g display="inline">
		<path d="M795.041,385v33.75h-1.25V385H795.041 M796.291,383.75h-3.75V420h3.75V383.75L796.291,383.75z"/>
	</g>
	<g display="inline">
		<path d="M792.5,386.125V407.5h-15v-21.375H792.5 M793.75,384.875h-17.5v23.875h17.5V384.875L793.75,384.875z"/>
	</g>
	<g display="inline">
		<path d="M788.75,377.486v1.354h-7.5v-1.354H788.75 M790,376.236h-10v3.854h10V376.236L790,376.236z"/>
	</g>
	<g display="inline">
		<path d="M728.761,369.996v8.938h-1.26v-8.938H728.761 M730.011,368.746h-3.76v11.438h3.76V368.746L730.011,368.746z"/>
	</g>
	<g display="inline">
		<path d="M731.261,368.746v10.188h-1.26v-10.188H731.261 M732.511,367.496h-3.76v12.688h3.76V367.496L732.511,367.496z"/>
	</g>
	<g display="inline">
		<path d="M733.761,372.496v6.438h-1.26v-6.438H733.761 M735.011,371.246h-3.76v8.938h3.76V371.246L735.011,371.246z"/>
	</g>
	
		<line display="inline" fill="none" stroke="#000000" stroke-width="1.25" stroke-miterlimit="10" x1="780.015" y1="403.146" x2="790.001" y2="403.146"/>
	
		<line display="inline" fill="none" stroke="#000000" stroke-width="1.25" stroke-miterlimit="10" x1="780.015" y1="396.927" x2="790.001" y2="396.927"/>
	
		<line display="inline" fill="none" stroke="#000000" stroke-width="1.25" stroke-miterlimit="10" x1="780.015" y1="390.662" x2="790.001" y2="390.662"/>
</g>
<g id="Edit" display="none">
	<g display="inline">
		<path d="M773.333,347.114l19.592,19.593l-48.324,48.326L725,414.952v-19.504L773.333,347.114 M773.333,340.043L720,393.376v26.554
			l26.664,0.111l53.332-53.335L773.333,340.043L773.333,340.043z"/>
	</g>
</g>
<g id="Layer_23" display="none">
	<g display="inline">
		<path d="M780.083,343.084c9.352,0,16.957,7.626,16.957,17s-7.605,17-16.957,17H740c-9.352,0-16.959-7.626-16.959-17
			s7.607-17,16.959-17H780.083 M780.083,340.084H740c-11.021,0-19.959,8.954-19.959,20s8.938,20,19.959,20h40.084
			c11.021,0,19.957-8.954,19.957-20S791.107,340.084,780.083,340.084L780.083,340.084z"/>
	</g>
	<g display="inline">
		<circle cx="779.958" cy="360.084" r="11.417"/>
	</g>
</g>
<g id="Layer_24" display="none">
	<g display="inline">
		<path d="M780.083,343.084c9.352,0,16.957,7.626,16.957,17s-7.605,17-16.957,17H740c-9.352,0-16.959-7.626-16.959-17
			s7.607-17,16.959-17H780.083 M780.083,340.084H740c-11.021,0-19.959,8.954-19.959,20s8.938,20,19.959,20h40.084
			c11.021,0,19.957-8.954,19.957-20S791.107,340.084,780.083,340.084L780.083,340.084z"/>
	</g>
	<g display="inline">
		<path d="M740.208,351.667c4.641,0,8.416,3.776,8.416,8.417s-3.775,8.417-8.416,8.417c-4.643,0-8.418-3.776-8.418-8.417
			S735.566,351.667,740.208,351.667 M740.208,348.667c-6.305,0-11.418,5.11-11.418,11.417s5.113,11.417,11.418,11.417
			s11.416-5.11,11.416-11.417S746.513,348.667,740.208,348.667L740.208,348.667z"/>
	</g>
</g>
<g id="On" display="none">
	<g display="inline">
		<path d="M760.041,343.084c20.391,0,36.98,16.589,36.98,36.979s-16.59,36.978-36.98,36.978c-20.389,0-36.979-16.588-36.979-36.978
			S739.652,343.084,760.041,343.084 M760.041,340.084c-22.08,0-39.979,17.9-39.979,39.979c0,22.078,17.898,39.978,39.979,39.978
			c22.082,0,39.98-17.9,39.98-39.978C800.021,357.984,782.123,340.084,760.041,340.084L760.041,340.084z"/>
	</g>
	<g display="inline">
		<path d="M758.685,380.058c0,3.154-0.781,5.578-2.346,7.272c-1.562,1.694-3.805,2.541-6.725,2.541s-5.16-0.847-6.727-2.541
			c-1.562-1.694-2.346-4.127-2.346-7.298c0-3.171,0.785-5.593,2.354-7.266c1.566-1.672,3.816-2.509,6.744-2.509
			s5.168,0.843,6.717,2.528C757.912,374.47,758.685,376.895,758.685,380.058z M744.779,380.058c0,2.128,0.404,3.731,1.213,4.809
			c0.809,1.078,2.016,1.616,3.623,1.616c3.225,0,4.834-2.141,4.834-6.425c0-4.292-1.604-6.438-4.809-6.438
			c-1.607,0-2.82,0.541-3.637,1.623C745.187,376.324,744.779,377.929,744.779,380.058z"/>
		<path d="M779.537,389.61h-5.135l-8.289-14.414h-0.117c0.164,2.545,0.248,4.362,0.248,5.448v8.966h-3.609v-19.054h5.096
			l8.275,14.271h0.092c-0.131-2.476-0.195-4.227-0.195-5.252v-9.019h3.637v19.054H779.537z"/>
	</g>
</g>
<g id="Off" display="none">
	<g display="inline">
		<path d="M760.041,344.084c19.84,0,35.98,16.14,35.98,35.979c0,19.838-16.141,35.978-35.98,35.978
			c-19.838,0-35.979-16.14-35.979-35.978C724.062,360.225,740.203,344.084,760.041,344.084 M760.041,340.084
			c-22.08,0-39.979,17.9-39.979,39.979c0,22.078,17.898,39.978,39.979,39.978c22.082,0,39.98-17.9,39.98-39.978
			C800.021,357.984,782.123,340.084,760.041,340.084L760.041,340.084z"/>
	</g>
	<g display="inline">
		<path d="M753.73,380.22c0,3.154-0.781,5.578-2.346,7.272c-1.564,1.694-3.807,2.542-6.725,2.542c-2.92,0-5.162-0.847-6.727-2.542
			c-1.562-1.694-2.346-4.127-2.346-7.298c0-3.171,0.785-5.594,2.354-7.266c1.566-1.672,3.814-2.509,6.742-2.509
			s5.168,0.843,6.717,2.528C752.957,374.633,753.73,377.057,753.73,380.22z M739.824,380.22c0,2.128,0.404,3.731,1.213,4.809
			c0.809,1.078,2.016,1.616,3.623,1.616c3.225,0,4.836-2.142,4.836-6.425c0-4.292-1.605-6.438-4.811-6.438
			c-1.607,0-2.82,0.541-3.637,1.623C740.234,376.487,739.824,378.092,739.824,380.22z"/>
		<path d="M761.654,389.773h-3.977V370.72h10.922v3.31h-6.945v4.914h6.465v3.297h-6.465V389.773z"/>
		<path d="M776.302,389.773h-3.975V370.72h10.922v3.31h-6.947v4.914h6.465v3.297h-6.465V389.773z"/>
	</g>
</g>
<g id="Plus" display="none">
	
		<line display="inline" fill="none" stroke="#000000" stroke-width="3" stroke-miterlimit="10" x1="759.937" y1="340.125" x2="759.937" y2="420"/>
	
		<line display="inline" fill="none" stroke="#000000" stroke-width="3" stroke-miterlimit="10" x1="799.875" y1="380.062" x2="720" y2="380.062"/>
</g>
<g id="Menü" display="none">
	
		<line display="inline" fill="none" stroke="#231F20" stroke-width="3" stroke-miterlimit="10" x1="800" y1="380" x2="720.001" y2="380"/>
	
		<line display="inline" fill="none" stroke="#231F20" stroke-width="3" stroke-miterlimit="10" x1="800" y1="410" x2="720.001" y2="410"/>
	
		<line display="inline" fill="none" stroke="#231F20" stroke-width="3" stroke-miterlimit="10" x1="800" y1="349.999" x2="720.001" y2="349.999"/>
</g>
<g id="Pfeil" display="none">
	<polyline display="inline" fill="none" stroke="#000000" stroke-width="5" stroke-miterlimit="10" points="758.208,341.75 
		796.46,380.001 758.208,418.253 	"/>
</g>
<g id="Layer_41" display="none">
	<polygon display="inline" fill="none" stroke="#000000" stroke-width="5" stroke-miterlimit="10" points="758.208,418.253 
		796.46,380.001 758.208,341.75 	"/>
</g>
<g id="Pause" display="none">
	<g display="inline">
		<path d="M775,345v70V345 M780,340h-10v80h10V340L780,340z"/>
	</g>
	<g display="inline">
		<path d="M745,345v70V345 M750,340h-10v80h10V340L750,340z"/>
	</g>
</g>
<g id="Layer_38" display="none">
</g>
<g id="Layer_22" display="none">
	
		<line display="inline" fill="none" stroke="#000000" stroke-width="5" stroke-miterlimit="10" x1="721.167" y1="419.042" x2="799.083" y2="341.125"/>
	
		<line display="inline" fill="none" stroke="#000000" stroke-width="5" stroke-miterlimit="10" x1="721.167" y1="341.125" x2="799.083" y2="419.042"/>
</g>
<g id="Bullet_active" display="none">
	<g display="inline">
		<path d="M797.501,342.479v75H722.48v-75H797.501 M800.001,339.979H719.98v80h80.021V339.979L800.001,339.979z"/>
	</g>
	<g display="inline">
		<rect x="730" y="350" width="59.984" height="60"/>
	</g>
</g>
<g id="Bullet" display="none">
	<g display="inline">
		<path d="M797.501,342.479v75H722.48v-75H797.501 M800.001,339.979H719.98v80h80.021V339.979L800.001,339.979z"/>
	</g>
</g>
<g id="TV" display="none">
	
		<line display="inline" fill="none" stroke="#000000" stroke-width="2.5" stroke-miterlimit="10" x1="749.849" y1="418.75" x2="770.017" y2="418.75"/>
	<g display="inline">
		<path d="M797.5,367.5v45h-75v-45H797.5 M800,365h-80v50h80V365L800,365z"/>
	</g>
	<g display="inline">
		<path d="M793.75,371.25v37.5h-67.5v-37.5H793.75 M795,370h-70v40h70V370L795,370z"/>
	</g>
</g>
<g id="Bett" display="none">
	<g display="inline">
		<path d="M797.484,398.755v13.76H722.5v-13.76H797.484 M799.984,396.255H720v18.76h79.984V396.255L799.984,396.255z"/>
	</g>
	<polyline display="inline" fill="none" stroke="#000000" stroke-width="2.5" stroke-miterlimit="10" points="726.25,395.085 
		726.25,381.25 793.765,381.25 793.765,395.104 	"/>
	<g display="inline">
		<path d="M726.25,414.838v3.943H725v-3.943H726.25 M727.5,413.588h-3.75v6.443h3.75V413.588L727.5,413.588z"/>
	</g>
	<g display="inline">
		<path d="M795.041,414.724v4.054h-1.25v-4.054H795.041 M796.291,413.474h-3.75v6.554h3.75V413.474L796.291,413.474z"/>
	</g>
	
		<line display="inline" fill="none" stroke="#000000" stroke-width="1.25" stroke-miterlimit="10" x1="730.009" y1="394.083" x2="730.009" y2="380.5"/>
	
		<line display="inline" fill="none" stroke="#000000" stroke-width="1.25" stroke-miterlimit="10" x1="740.009" y1="394.083" x2="740.009" y2="380.5"/>
	
		<line display="inline" fill="none" stroke="#000000" stroke-width="1.25" stroke-miterlimit="10" x1="750.009" y1="394.083" x2="750.009" y2="380.5"/>
	
		<line display="inline" fill="none" stroke="#000000" stroke-width="1.25" stroke-miterlimit="10" x1="760.009" y1="394.083" x2="760.009" y2="380.5"/>
	
		<line display="inline" fill="none" stroke="#000000" stroke-width="1.25" stroke-miterlimit="10" x1="770.009" y1="394.083" x2="770.009" y2="380.5"/>
	
		<line display="inline" fill="none" stroke="#000000" stroke-width="1.25" stroke-miterlimit="10" x1="780.009" y1="394.083" x2="780.009" y2="380.5"/>
	
		<line display="inline" fill="none" stroke="#000000" stroke-width="1.25" stroke-miterlimit="10" x1="790.009" y1="394.083" x2="790.009" y2="380.5"/>
	
		<line display="inline" fill="none" stroke="#000000" stroke-width="1.25" stroke-miterlimit="10" x1="725" y1="394.489" x2="795.015" y2="394.489"/>
	
		<line display="inline" fill="none" stroke="#000000" stroke-width="2.5" stroke-miterlimit="10" x1="726.25" y1="380.208" x2="726.25" y2="377.542"/>
	
		<line display="inline" fill="none" stroke="#000000" stroke-width="2.5" stroke-miterlimit="10" x1="793.765" y1="380.192" x2="793.765" y2="377.526"/>
</g>
<g id="Smartphone" display="none">
	<g display="inline">
		<path d="M776.25,355.016v51.25h-32.484v-51.25H776.25 M777.5,353.766h-34.984v53.75H777.5V353.766L777.5,353.766z"/>
	</g>
	
		<line display="inline" fill="none" stroke="#000000" stroke-width="1.235" stroke-miterlimit="10" x1="756.287" y1="348.167" x2="763.746" y2="348.167"/>
	
		<line display="inline" fill="none" stroke="#000000" stroke-width="2.5" stroke-miterlimit="10" x1="756.271" y1="412.511" x2="763.75" y2="412.511"/>
	<g display="inline">
		<path d="M777.5,342.5c1.379,0,2.5,1.122,2.5,2.5v70c0,1.378-1.121,2.5-2.5,2.5h-35c-1.379,0-2.5-1.122-2.5-2.5v-70
			c0-1.378,1.121-2.5,2.5-2.5H777.5 M777.5,340h-35c-2.762,0-5,2.239-5,5v70c0,2.761,2.238,5,5,5h35c2.762,0,5-2.239,5-5v-70
			C782.5,342.239,780.261,340,777.5,340L777.5,340z"/>
	</g>
</g>
<g id="Tablet" display="none">
	<g display="inline">
		<path d="M782.5,354.969v51.297h-44.984v-51.297H782.5 M783.75,353.719h-47.484v53.797h47.484V353.719L783.75,353.719z"/>
	</g>
	
		<line display="inline" fill="none" stroke="#000000" stroke-width="1.235" stroke-miterlimit="10" x1="756.287" y1="348.167" x2="763.746" y2="348.167"/>
	
		<line display="inline" fill="none" stroke="#000000" stroke-width="2.5" stroke-miterlimit="10" x1="756.271" y1="412.511" x2="763.75" y2="412.511"/>
	<g display="inline">
		<path d="M785,342.5c1.379,0,2.5,1.122,2.5,2.5v70c0,1.378-1.121,2.5-2.5,2.5h-50c-1.379,0-2.5-1.122-2.5-2.5v-70
			c0-1.378,1.121-2.5,2.5-2.5H785 M785,340h-50c-2.762,0-5,2.239-5,5v70c0,2.761,2.238,5,5,5h50c2.762,0,5-2.239,5-5v-70
			C790,342.239,787.761,340,785,340L785,340z"/>
	</g>
</g>
<g id="Layer_43" display="none">
	<g display="inline">
		<path d="M788.75,346.25v33.781h-57.5V346.25H788.75 M790,345h-60v36.281h60V345L790,345z"/>
	</g>
	<g display="inline">
		<path d="M790,342.5c1.379,0,2.5,1.122,2.5,2.5v36.333c0,1.378-1.121,2.5-2.5,2.5h-59.998c-1.379,0-2.5-1.122-2.5-2.5V345
			c0-1.378,1.121-2.5,2.5-2.5H790 M790,340h-59.998c-2.762,0-5,2.239-5,5v36.333c0,2.761,2.238,5,5,5H790c2.762,0,5-2.239,5-5V345
			C795,342.239,792.761,340,790,340L790,340z"/>
	</g>
	<g display="inline">
		<path d="M722.5,391.251l29.969,0.012l-0.031,1.269H755h10h2.498l0.002-1.262l30,0.011v1.22c0,1.378-1.121,2.5-2.5,2.5h-70
			c-1.379,0-2.5-1.122-2.5-2.5V391.251 M720,388.75v3.75c0,2.761,2.238,5,5,5h70c2.762,0,5-2.239,5-5v-3.719l-34.998-0.013
			L765,390.031h-10l0.031-1.268L720,388.75L720,388.75z"/>
	</g>
</g>
<g id="Radio" display="none">
	<g display="inline">
		<path d="M797.5,372.484V417.5h-75.016v-45.016H797.5 M800,369.984h-80.016V420H800V369.984L800,369.984z"/>
	</g>
	<g display="inline">
		<path d="M744.968,381.25c7.582,0,13.75,6.168,13.75,13.75s-6.168,13.75-13.75,13.75s-13.75-6.168-13.75-13.75
			S737.386,381.25,744.968,381.25 M744.968,380c-8.283,0-15,6.716-15,15s6.717,15,15,15c8.285,0,15-6.716,15-15
			S753.253,380,744.968,380L744.968,380z"/>
	</g>
	
		<line display="inline" fill="none" stroke="#000000" stroke-width="1.25" stroke-miterlimit="10" x1="770" y1="380" x2="790.062" y2="380"/>
	
		<line display="inline" fill="none" stroke="#000000" stroke-width="1.25" stroke-miterlimit="10" x1="770" y1="390" x2="790.062" y2="390"/>
	
		<line display="inline" fill="none" stroke="#000000" stroke-width="1.25" stroke-miterlimit="10" x1="770" y1="400" x2="790.062" y2="400"/>
	
		<line display="inline" fill="none" stroke="#000000" stroke-width="1.25" stroke-miterlimit="10" x1="770" y1="410" x2="790.062" y2="410"/>
	
		<line display="inline" fill="none" stroke="#000000" stroke-width="1.25" stroke-miterlimit="10" x1="720.375" y1="370.5" x2="759.656" y2="340.5"/>
</g>
<g id="Stereoanlage" display="none">
	<g display="inline">
		<path d="M742.5,372.5v45.016h-20V372.5H742.5 M745,370h-25v50.016h25V370L745,370z"/>
	</g>
	<g display="inline">
		<path d="M732.5,396.281c3.447,0,6.25,2.804,6.25,6.25c0,3.445-2.803,6.25-6.25,6.25c-3.445,0-6.25-2.805-6.25-6.25
			C726.25,399.085,729.054,396.281,732.5,396.281 M732.5,395.031c-4.143,0-7.5,3.357-7.5,7.5c0,4.142,3.357,7.5,7.5,7.5
			s7.5-3.358,7.5-7.5C740,398.389,736.642,395.031,732.5,395.031L732.5,395.031z"/>
	</g>
	<g display="inline">
		<path d="M732.5,381.287c0.678,0,1.229,0.551,1.229,1.229c0,0.678-0.551,1.229-1.229,1.229s-1.229-0.551-1.229-1.229
			C731.271,381.838,731.822,381.287,732.5,381.287 M732.5,380.037c-1.369,0-2.479,1.11-2.479,2.479c0,1.369,1.109,2.479,2.479,2.479
			c1.371,0,2.479-1.11,2.479-2.479C734.978,381.147,733.869,380.037,732.5,380.037L732.5,380.037z"/>
	</g>
	<g display="inline">
		<path d="M797.5,372.5v45.016h-20V372.5H797.5 M800,370h-25v50.016h25V370L800,370z"/>
	</g>
	<g display="inline">
		<path d="M787.5,396.281c3.447,0,6.25,2.804,6.25,6.25c0,3.445-2.803,6.25-6.25,6.25c-3.445,0-6.25-2.805-6.25-6.25
			C781.25,399.085,784.054,396.281,787.5,396.281 M787.5,395.031c-4.143,0-7.5,3.357-7.5,7.5c0,4.142,3.357,7.5,7.5,7.5
			s7.5-3.358,7.5-7.5C795,398.389,791.642,395.031,787.5,395.031L787.5,395.031z"/>
	</g>
	<g display="inline">
		<path d="M787.5,381.266c0.689,0,1.25,0.561,1.25,1.25s-0.561,1.25-1.25,1.25s-1.25-0.561-1.25-1.25S786.81,381.266,787.5,381.266
			 M787.5,380.016c-1.381,0-2.5,1.119-2.5,2.5c0,1.381,1.119,2.5,2.5,2.5s2.5-1.119,2.5-2.5
			C790,381.135,788.88,380.016,787.5,380.016L787.5,380.016z"/>
	</g>
	<g display="inline">
		<path d="M767.5,392.583v24.933h-15.082v-24.933H767.5 M770,390.083h-20.082v29.933H770V390.083L770,390.083z"/>
	</g>
	
		<line display="inline" fill="none" stroke="#000000" stroke-width="1.25" stroke-miterlimit="10" x1="755.001" y1="395.031" x2="765.001" y2="395.031"/>
	
		<line display="inline" fill="none" stroke="#000000" stroke-width="1.25" stroke-miterlimit="10" x1="755.001" y1="400" x2="765.001" y2="400"/>
	
		<line display="inline" fill="none" stroke="#000000" stroke-width="1.25" stroke-miterlimit="10" x1="755.001" y1="405" x2="765.001" y2="405"/>
	<g display="inline">
		<path d="M763.833,411.312v2.5h-7.75v-2.5H763.833 M765.083,410.062h-10.25v5h10.25V410.062L765.083,410.062z"/>
	</g>
</g>
<g id="guhTune" display="none">
	<g display="inline">
		<path d="M794.833,342.667c1.379,0,2.5,1.122,2.5,2.5v70c0,1.378-1.121,2.5-2.5,2.5h-70c-1.379,0-2.5-1.122-2.5-2.5v-70
			c0-1.378,1.121-2.5,2.5-2.5H794.833 M794.833,340.167h-70c-2.762,0-5,2.239-5,5v70c0,2.761,2.238,5,5,5h70c2.762,0,5-2.239,5-5
			v-70C799.833,342.405,797.595,340.167,794.833,340.167L794.833,340.167z"/>
	</g>
	<g display="inline">
		<path d="M760.029,348.75c17.232,0,31.252,14.02,31.252,31.252c0,17.232-14.02,31.252-31.252,31.252s-31.252-14.02-31.252-31.252
			C728.777,362.77,742.796,348.75,760.029,348.75 M760.029,346.25c-18.641,0-33.752,15.112-33.752,33.752
			c0,18.64,15.111,33.752,33.752,33.752s33.752-15.112,33.752-33.752C793.781,361.362,778.669,346.25,760.029,346.25L760.029,346.25
			z"/>
	</g>
	<g display="inline">
		<path d="M760,361.333c10.293,0,18.666,8.374,18.666,18.667s-8.373,18.667-18.666,18.667s-18.666-8.374-18.666-18.667
			S749.707,361.333,760,361.333 M760,360.083c-10.998,0-19.916,8.917-19.916,19.917s8.918,19.917,19.916,19.917
			c11,0,19.916-8.917,19.916-19.917S771,360.083,760,360.083L760,360.083z"/>
	</g>
</g>
<g id="Subscribe_1_" display="none">
	<polyline display="inline" fill="none" stroke="#000000" stroke-width="2.5" stroke-miterlimit="10" points="788.875,363.61 
		798.75,371.188 798.75,418.734 721.281,418.734 721.281,371.188 731.267,363.526 	"/>
	<polyline display="inline" fill="none" stroke="#000000" stroke-width="1.25" stroke-miterlimit="10" points="798.375,418.25 
		770.125,395 750.125,395 721.613,418.662 	"/>
	<polyline display="inline" fill="none" stroke="#000000" stroke-width="1.25" stroke-miterlimit="10" points="798.123,371.327 
		798.375,371.5 770.125,395 	"/>
	<polyline display="inline" fill="none" stroke="#000000" stroke-width="1.25" stroke-miterlimit="10" points="750.125,395 
		721.613,371.5 722.207,371.092 	"/>
	<path display="inline" d="M787.417,342.5v38.116l2.5-2.081V340l0,0H730v38.563l2.5,1.91V342.5H787.417"/>
</g>
<g id="Subscribe_2" display="none">
	<polyline display="inline" fill="none" stroke="#000000" stroke-width="2.5" stroke-miterlimit="10" points="788.875,363.61 
		798.75,371.188 798.75,418.734 721.281,418.734 721.281,371.188 731.267,363.526 	"/>
	<polyline display="inline" fill="none" stroke="#000000" stroke-width="1.25" stroke-miterlimit="10" points="798.375,418.25 
		770.125,395 750.125,395 721.613,418.662 	"/>
	<polyline display="inline" fill="none" stroke="#000000" stroke-width="1.25" stroke-miterlimit="10" points="798.123,371.327 
		798.375,371.5 770.125,395 	"/>
	<polyline display="inline" fill="none" stroke="#000000" stroke-width="1.25" stroke-miterlimit="10" points="750.125,395 
		721.613,371.5 722.207,371.092 	"/>
	<path display="inline" d="M787.417,342.5v38.116l2.5-2.081V340l0,0H740l-10,10v28.563l2.5,1.91v-29.438l8.535-8.536L787.417,342.5"
		/>
	<polyline display="inline" fill="none" stroke="#000000" stroke-width="1.25" stroke-miterlimit="10" points="740.656,340.875 
		740.656,350.656 731.208,350.656 	"/>
</g>
<g id="Suche" display="none">
	<g display="inline">
		<path d="M750,345c13.785,0,25.002,11.215,25.002,25c0,8.773-4.691,17.013-12.242,21.504c-3.846,2.288-8.258,3.497-12.76,3.497
			c-13.785,0-25-11.215-25-25S736.214,345,750,345 M750,340c-16.568,0-30,13.432-30,30s13.432,30,30,30
			c5.596,0,10.832-1.532,15.316-4.199c8.793-5.23,14.686-14.828,14.686-25.801C780.001,353.432,766.57,340,750,340L750,340z"/>
	</g>
	
		<line display="inline" fill="none" stroke="#000000" stroke-width="10" stroke-miterlimit="10" x1="800.001" y1="420" x2="770.833" y2="390.833"/>
</g>
<g id="Layer_40" display="none">
	<g display="inline">
		<path d="M725,342.5c1.379,0,2.5,1.122,2.5,2.5s-1.121,2.5-2.5,2.5s-2.5-1.122-2.5-2.5S723.621,342.5,725,342.5 M725,340
			c-2.762,0-5,2.238-5,5s2.238,5,5,5s5-2.238,5-5S727.761,340,725,340L725,340z"/>
	</g>
</g>
<g id="Layer_42" display="none">
	<g display="inline">
		<path d="M800.166,380.167c0,22.094-17.912,40-40,40c-22.094,0-40-17.906-40-40s17.906-40,40-40
			C782.253,340.167,800.166,358.073,800.166,380.167z"/>
	</g>
</g>
<g id="tasse" display="none">
	<g display="inline">
		<path d="M777.449,381.238c-0.465,11.583-4.105,28.384-12.826,31.278h-19.211c-8.746-2.842-12.396-19.637-12.859-31.222
			L777.449,381.238 M780,378.734l-50,0.062c0,12.112,3.607,32.981,15.043,36.219H765C776.392,411.722,780,390.815,780,378.734
			L780,378.734z"/>
	</g>
	<g display="inline">
		<path d="M779.568,387.521c4.152,0,7.531,3.379,7.531,7.532c0,4.152-3.379,7.531-7.531,7.531h-0.059l-0.059,0.002
			c-0.672,0.031-1.326,0.047-1.941,0.047c-0.566,0-1.107-0.013-1.621-0.039c2.154-5.668,3.146-11.82,3.553-15.073H779.568
			 M779.568,385.021c-0.779,0-2.375,0.003-2.375,0.003s-0.881,11.383-4.912,19.633c1.439,0.316,3.188,0.476,5.229,0.476
			c0.656,0,1.342-0.016,2.059-0.049c5.541,0,10.031-4.492,10.031-10.031C789.599,389.513,785.109,385.021,779.568,385.021
			L779.568,385.021z"/>
	</g>
	<path display="inline" fill="none" stroke="#000000" stroke-width="2.5" stroke-miterlimit="10" d="M744.789,350
		c0,0,3.041,7.298,0.096,12.299c-2.943,5.001,0,11.452,0,11.452"/>
	<path display="inline" fill="none" stroke="#000000" stroke-width="2.5" stroke-miterlimit="10" d="M754.878,350
		c0,0,3.041,7.298,0.096,12.299c-2.943,5.001,0,11.452,0,11.452"/>
	<path display="inline" fill="none" stroke="#000000" stroke-width="2.5" stroke-miterlimit="10" d="M765.044,350
		c0,0,3.039,7.298,0.096,12.299s0,11.452,0,11.452"/>
	<g display="inline">
		<path fill="#FFFFFF" d="M735,418.75c-2.066,0-3.75-1.682-3.75-3.75v-1.25h47.5V415c0,2.068-1.682,3.75-3.75,3.75H735z"/>
		<path d="M777.5,415L777.5,415c0,1.379-1.121,2.5-2.5,2.5h-40c-1.379,0-2.5-1.122-2.5-2.5l0,0H777.5 M780,412.5h-50v2.5
			c0,2.762,2.238,5,5,5h40c2.762,0,5-2.238,5-5V412.5L780,412.5z"/>
	</g>
</g>
<g id="schloss" display="none">
	<g display="inline">
		<path d="M780,377.5c1.379,0,2.5,1.122,2.5,2.5v35c0,1.378-1.121,2.5-2.5,2.5h-40c-1.379,0-2.5-1.122-2.5-2.5v-35
			c0-1.378,1.121-2.5,2.5-2.5H780 M780,375h-40c-2.762,0-5,2.239-5,5v35c0,2.761,2.238,5,5,5h40c2.762,0,5-2.239,5-5v-35
			C785,377.239,782.761,375,780,375L780,375z"/>
	</g>
	<g display="inline">
		<path d="M760,386.25c3.762,0,6.824,3.061,6.824,6.824c0,2.42-1.268,4.61-3.387,5.857l-0.615,0.362v0.715v5.982
			c0,1.555-1.268,2.821-2.822,2.821s-2.82-1.267-2.82-2.821v-5.982v-0.715l-0.615-0.362c-2.121-1.249-3.389-3.438-3.389-5.858
			C753.175,389.311,756.236,386.25,760,386.25 M760,385c-4.459,0-8.074,3.615-8.074,8.074c0,2.967,1.619,5.533,4.004,6.936v5.982
			c0,2.249,1.822,4.071,4.07,4.071c2.25,0,4.072-1.822,4.072-4.071v-5.982c2.385-1.402,4.002-3.969,4.002-6.936
			C768.074,388.615,764.458,385,760,385L760,385z"/>
	</g>
	<g display="inline">
		<path d="M760,342.5c9.65,0,17.5,7.851,17.5,17.5v14.971l-3.725,0.003V360c0-7.582-6.17-13.75-13.75-13.75
			c-7.582,0-13.75,6.168-13.75,13.75v14.995l-3.775,0.003V360C742.5,350.351,750.351,342.5,760,342.5 M760,340
			c-11.045,0-20,8.954-20,20v17.5l8.775-0.007V360c0-6.213,5.035-11.25,11.25-11.25c6.213,0,11.25,5.037,11.25,11.25v17.476
			l8.725-0.007V360C780,348.954,771.046,340,760,340L760,340z"/>
	</g>
</g>
<g id="schloss_offen" display="none">
	<g display="inline">
		<path d="M741.226,342.5c9.648,0,17.5,7.851,17.5,17.5v14.971L755,374.974V360c0-7.582-6.168-13.75-13.75-13.75
			S727.5,352.418,727.5,360v14.995l-3.773,0.003V360C723.726,350.351,731.576,342.5,741.226,342.5 M741.226,340
			c-11.047,0-20,8.954-20,20v17.5l8.773-0.007V360c0-6.213,5.037-11.25,11.25-11.25s11.25,5.037,11.25,11.25v17.476l8.727-0.007V360
			C761.226,348.954,752.271,340,741.226,340L741.226,340z"/>
	</g>
	<g display="inline">
		<path d="M795,377.5c1.379,0,2.5,1.122,2.5,2.5v35c0,1.378-1.121,2.5-2.5,2.5h-40c-1.379,0-2.5-1.122-2.5-2.5v-35
			c0-1.378,1.121-2.5,2.5-2.5H795 M795,375h-40c-2.762,0-5,2.239-5,5v35c0,2.761,2.238,5,5,5h40c2.762,0,5-2.239,5-5v-35
			C800,377.239,797.761,375,795,375L795,375z"/>
	</g>
	<g display="inline">
		<path d="M775,386.25c3.762,0,6.824,3.061,6.824,6.824c0,2.42-1.268,4.61-3.387,5.857l-0.615,0.362v0.715v5.982
			c0,1.555-1.268,2.821-2.822,2.821s-2.82-1.267-2.82-2.821v-5.982v-0.715l-0.615-0.362c-2.121-1.249-3.389-3.438-3.389-5.858
			C768.175,389.311,771.236,386.25,775,386.25 M775,385c-4.459,0-8.074,3.615-8.074,8.074c0,2.967,1.619,5.533,4.004,6.936v5.982
			c0,2.249,1.822,4.071,4.07,4.071c2.25,0,4.072-1.822,4.072-4.071v-5.982c2.385-1.402,4.002-3.969,4.002-6.936
			C783.074,388.615,779.458,385,775,385L775,385z"/>
	</g>
</g>
<g id="powerwall" display="none">
	<g display="inline">
		<path fill="#1D1D1B" d="M734.75,342c0,0,10.875-1.625,20.625-1.625c0,8.25,0,75.625,0,75.625s-7.875-0.5-11.125-1s-9-1.125-11-1
			c-0.375-3.375-3-31.25-3-38.75S730.625,353.625,734.75,342z"/>
		<path fill="#1D1D1B" d="M776,342c0,0-10.875-1.625-20.625-1.625c0,8.25,0,75.625,0,75.625s7.875-0.5,11.125-1s9-1.125,11-1
			c0.375-3.375,3-31.25,3-38.75S780.125,353.625,776,342z"/>
	</g>
	<path display="inline" fill="none" stroke="#1D1D1B" stroke-width="2.5" stroke-miterlimit="10" d="M780.625,344.125
		c0,0-10.875-1.625-20.625-1.625s-20.625,1.625-20.625,1.625c-4.125,11.625-4.5,25.75-4.5,33.25s2.625,35.375,3,38.75
		c2-0.125,7.75,0.5,11,1s11.125,1,11.125,1s7.875-0.5,11.125-1s9-1.125,11-1c0.375-3.375,3-31.25,3-38.75
		S784.75,355.75,780.625,344.125z"/>
	<path display="inline" d="M753.359,370.038h1.693c0.236-0.086,0.41-0.254,0.459-0.453H752.9
		C752.949,369.784,753.123,369.952,753.359,370.038"/>
	<path display="inline" d="M747.333,368.68c0.051,0.198,0.223,0.363,0.459,0.452h0.711l0.037,0.015v1.796h0.443v-1.796l0.041-0.015
		h0.713c0.232-0.088,0.406-0.253,0.457-0.452v-0.005h-2.861V368.68L747.333,368.68z"/>
	<path display="inline" d="M753.359,370.96h1.693c0.236-0.088,0.41-0.255,0.459-0.455H752.9
		C752.949,370.705,753.123,370.872,753.359,370.96"/>
	<path display="inline" d="M753.359,369.158h1.693c0.236-0.088,0.41-0.254,0.459-0.455H752.9
		C752.949,368.904,753.123,369.07,753.359,369.158"/>
	<path display="inline" d="M770.353,369.17h1.693c0.236-0.088,0.402-0.246,0.451-0.447h-2.611
		C769.935,368.924,770.117,369.082,770.353,369.17"/>
	<path display="inline" d="M766.535,370.967c0.219-0.093,0.338-0.257,0.383-0.444h-1.953l0.002-1.803l-0.438,0.001v2.241
		L766.535,370.967z"/>
	<path display="inline" d="M759.136,369.144h1.562c0.234-0.067,0.408-0.245,0.457-0.443h-2.455v1.336h2.027v0.47h-1.57
		c-0.23,0.088-0.402,0.241-0.449,0.438l-0.008,0.019h2.467v-1.371h-2.029v-0.449H759.136z"/>
	<polygon display="inline" points="769.972,369.602 769.972,370.975 770.41,370.975 770.41,370.061 772.001,370.061 
		772.001,370.975 772.439,370.975 772.439,369.605 	"/>
</g>
<g id="waschmaschine" display="none">
	<g display="inline">
		<path fill="#1D1D1B" d="M786.248,344.086v9.452h-53.494v-9.452H786.248 M789,341.333h-59v14.958h59V341.333L789,341.333z"/>
	</g>
	<g display="inline">
		<path fill="#1D1D1B" d="M786.621,360.149v57.45h-54.115v-57.45H786.621 M789.062,357.707h-59v62.333h59V357.707L789.062,357.707z"
			/>
	</g>
	<g display="inline">
		<path fill="#1D1D1B" d="M760.062,372.5c9.684,0,17.562,7.878,17.562,17.562s-7.879,17.562-17.562,17.562
			s-17.562-7.878-17.562-17.562S750.378,372.5,760.062,372.5 M760.062,370c-11.08,0-20.062,8.982-20.062,20.062
			c0,11.08,8.982,20.062,20.062,20.062s20.062-8.982,20.062-20.062C780.125,378.982,771.142,370,760.062,370L760.062,370z"/>
	</g>
	<path display="inline" fill="none" stroke="#1D1D1B" stroke-width="1.3589" stroke-miterlimit="10" d="M743.75,394.031
		c0,0,3.227-2.781,5.887-2.781s5.887,2.5,10.342,2.5c4.457,0,7.238-2.75,10.342-2.75c2.664,0,5.994,3.031,5.994,3.031"/>
	<g display="inline">
		<path fill="#1D1D1B" d="M738.333,347.5c0.689,0,1.25,0.561,1.25,1.25s-0.561,1.25-1.25,1.25s-1.25-0.561-1.25-1.25
			S737.644,347.5,738.333,347.5 M738.333,346.25c-1.381,0-2.5,1.119-2.5,2.5s1.119,2.5,2.5,2.5s2.5-1.119,2.5-2.5
			S739.714,346.25,738.333,346.25L738.333,346.25z"/>
	</g>
	<g display="inline">
		<path fill="#1D1D1B" d="M746.333,347.5c0.689,0,1.25,0.561,1.25,1.25s-0.561,1.25-1.25,1.25s-1.25-0.561-1.25-1.25
			S745.644,347.5,746.333,347.5 M746.333,346.25c-1.381,0-2.5,1.119-2.5,2.5s1.119,2.5,2.5,2.5s2.5-1.119,2.5-2.5
			S747.714,346.25,746.333,346.25L746.333,346.25z"/>
	</g>
</g>
<g id="Heizpaneel" display="none">
	<g display="inline">
		<path fill="#1D1D1B" d="M797.558,360.149v57.45h-75.115v-57.45H797.558 M800,357.707h-80v62.333h80V357.707L800,357.707z"/>
	</g>
	<g display="inline">
		<rect x="752.765" y="384.216" fill="none" width="20.471" height="14.174"/>
		<text transform="matrix(1 0 0 1 752.7651 395.0796)" font-family="'Ubuntu'" font-size="14">IR</text>
		<g>
			<g>
				<defs>
					<rect id="SVGID_1_" x="761.208" y="377.358" width="11.607" height="11.21"/>
				</defs>
				<clipPath id="SVGID_2_">
					<use xlink:href="#SVGID_1_"  overflow="visible"/>
				</clipPath>
				
					<circle clip-path="url(#SVGID_2_)" fill="none" stroke="#020202" stroke-width="1.3589" stroke-miterlimit="10" cx="761.208" cy="388.568" r="4.783"/>
			</g>
			<g>
				<defs>
					<rect id="SVGID_3_" x="761.208" y="377.358" width="11.607" height="11.21"/>
				</defs>
				<clipPath id="SVGID_4_">
					<use xlink:href="#SVGID_3_"  overflow="visible"/>
				</clipPath>
				
					<ellipse clip-path="url(#SVGID_4_)" fill="none" stroke="#020202" stroke-width="1.3589" stroke-miterlimit="10" cx="761.208" cy="388.568" rx="7.234" ry="6.925"/>
			</g>
			<g>
				<defs>
					<rect id="SVGID_5_" x="761.208" y="377.358" width="11.607" height="11.21"/>
				</defs>
				<clipPath id="SVGID_6_">
					<use xlink:href="#SVGID_5_"  overflow="visible"/>
				</clipPath>
				
					<circle clip-path="url(#SVGID_6_)" fill="none" stroke="#020202" stroke-width="1.3589" stroke-miterlimit="10" cx="761.208" cy="388.568" r="9.371"/>
			</g>
		</g>
	</g>
</g>
<g id="Motiondetector" display="none">
	<g display="inline">
		<path fill="#1D1D1B" d="M760,342.5c20.678,0,37.5,16.822,37.5,37.5c0,20.678-16.822,37.5-37.5,37.5s-37.5-16.822-37.5-37.5
			C722.5,359.322,739.322,342.5,760,342.5 M760,340c-22.092,0-40,17.908-40,40s17.908,40,40,40s40-17.908,40-40S782.091,340,760,340
			L760,340z"/>
	</g>
	<g display="inline">
		<path fill="#1D1D1B" d="M760,365.75c7.857,0,14.25,6.392,14.25,14.249s-6.393,14.25-14.25,14.25s-14.25-6.392-14.25-14.25
			C745.75,372.143,752.142,365.75,760,365.75 M760,363.25c-9.25,0-16.75,7.498-16.75,16.749c0,9.25,7.5,16.75,16.75,16.75
			s16.75-7.5,16.75-16.75C776.75,370.748,769.25,363.25,760,363.25L760,363.25z"/>
	</g>
	<polygon display="inline" fill="none" stroke="#1D1D1B" stroke-width="1.3589" stroke-miterlimit="10" points="758.009,383.397 
		756.048,380 758.009,376.603 761.933,376.603 763.894,380 761.933,383.397 	"/>
	<polygon display="inline" fill="none" stroke="#1D1D1B" stroke-width="1.3589" stroke-miterlimit="10" points="758.039,376.603 
		756.078,373.205 758.039,369.808 761.962,369.808 763.923,373.205 761.962,376.603 	"/>
	<polygon display="inline" fill="none" stroke="#1D1D1B" stroke-width="1.3589" stroke-miterlimit="10" points="758.039,390.192 
		756.078,386.795 758.039,383.397 761.962,383.397 763.923,386.795 761.962,390.192 	"/>
	<polygon display="inline" fill="none" stroke="#1D1D1B" stroke-width="1.3589" stroke-miterlimit="10" points="752.103,386.795 
		750.142,383.397 752.103,380 756.027,380 757.988,383.397 756.027,386.795 	"/>
	<polygon display="inline" fill="none" stroke="#1D1D1B" stroke-width="1.3589" stroke-miterlimit="10" points="752.103,380 
		750.142,376.603 752.103,373.205 756.027,373.205 757.988,376.603 756.027,380 	"/>
	<polygon display="inline" fill="none" stroke="#1D1D1B" stroke-width="1.3589" stroke-miterlimit="10" points="763.867,380 
		761.906,376.603 763.867,373.205 767.791,373.205 769.751,376.603 767.791,380 	"/>
	<polygon display="inline" fill="none" stroke="#1D1D1B" stroke-width="1.3589" stroke-miterlimit="10" points="763.867,386.795 
		761.906,383.397 763.867,380 767.791,380 769.751,383.397 767.791,386.795 	"/>
	<polygon display="inline" fill="none" stroke="#1D1D1B" stroke-width="1.3589" stroke-miterlimit="10" points="763.867,393.59 
		761.906,390.192 763.867,386.795 767.791,386.795 769.751,390.192 767.791,393.59 	"/>
	<polygon display="inline" fill="none" stroke="#1D1D1B" stroke-width="1.3589" stroke-miterlimit="10" points="752.103,393.59 
		750.142,390.192 752.103,386.795 756.027,386.795 757.988,390.192 756.027,393.59 	"/>
	<polygon display="inline" fill="none" stroke="#1D1D1B" stroke-width="1.3589" stroke-miterlimit="10" points="746.22,383.397 
		744.259,380 746.22,376.602 750.144,376.602 752.105,380 750.144,383.397 	"/>
	<polygon display="inline" fill="none" stroke="#1D1D1B" stroke-width="1.3589" stroke-miterlimit="10" points="752.103,373.205 
		750.142,369.808 752.103,366.41 756.027,366.41 757.988,369.808 756.027,373.205 	"/>
	<polygon display="inline" fill="none" stroke="#1D1D1B" stroke-width="1.3589" stroke-miterlimit="10" points="763.867,373.205 
		761.906,369.808 763.867,366.41 767.791,366.41 769.751,369.808 767.791,373.205 	"/>
	<polygon display="inline" fill="none" stroke="#1D1D1B" stroke-width="1.3589" stroke-miterlimit="10" points="769.867,383.397 
		767.906,380 769.867,376.603 773.791,376.603 775.751,380 773.791,383.397 	"/>
</g>
<g id="Guides_außen">
</g>
<g id="switch" display="none">
	<g display="inline">
		<path d="M770.003,360.167v39.666h-20.006v-39.666H770.003 M772.503,357.667h-25.006v44.666h25.006V357.667L772.503,357.667z"/>
	</g>
	
		<line display="inline" fill="none" stroke="#000000" stroke-width="1.3589" stroke-miterlimit="10" x1="760" y1="367.333" x2="760" y2="373.333"/>
	
		<circle display="inline" fill="none" stroke="#000000" stroke-width="1.3589" stroke-miterlimit="10" cx="760" cy="391.667" r="3"/>
	<g display="inline">
		<path d="M797.5,342.892v74.217h-75v-74.217H797.5 M800,340.392h-80v79.217h80V340.392L800,340.392z"/>
	</g>
	
		<line display="inline" fill="none" stroke="#000000" stroke-width="1.3589" stroke-miterlimit="10" x1="753.25" y1="380" x2="766.875" y2="380"/>
</g>
<g id="ev_charger" display="none">
	
		<rect x="735.75" y="413.833" display="inline" fill="none" stroke="#000000" stroke-width="2.5" stroke-miterlimit="10" width="41.168" height="4.833"/>
	
		<rect x="740.833" y="341.333" display="inline" fill="none" stroke="#000000" stroke-width="2.5" stroke-miterlimit="10" width="31" height="68.5"/>
	
		<rect x="747.5" y="347.583" display="inline" fill="none" stroke="#000000" stroke-width="1.39" stroke-miterlimit="10" width="17.668" height="7.167"/>
	<polygon display="inline" fill="none" stroke="#000000" stroke-width="1.39" stroke-miterlimit="10" points="782.734,372.648 
		791.417,366 799,366 799,371.333 791.833,371.333 784.833,375.583 	"/>
	<polyline display="inline" fill="none" stroke="#000000" stroke-width="2.5" stroke-miterlimit="10" points="771.833,361.333 
		776.917,361.333 776.917,405.167 780.833,405.167 780.833,377.5 783.734,374.446 	"/>
	<polygon display="inline" points="751.562,370.579 755.947,370.579 754.421,376.304 761.103,368.67 756.722,368.67 
		758.242,362.946 	"/>
</g>
<g id="garage" display="none">
	
		<line display="inline" fill="none" stroke="#000000" stroke-width="2.5" stroke-linecap="square" stroke-miterlimit="10" x1="727.5" y1="418.75" x2="727.5" y2="373.75"/>
	
		<line display="inline" fill="none" stroke="#000000" stroke-width="2.5" stroke-linecap="square" stroke-miterlimit="10" x1="721.281" y1="418.75" x2="721.281" y2="367.99"/>
	
		<line display="inline" fill="none" stroke="#000000" stroke-width="2.5" stroke-linecap="square" stroke-miterlimit="10" x1="727.5" y1="372.5" x2="792.5" y2="372.5"/>
	
		<line display="inline" fill="none" stroke="#000000" stroke-width="2.5" stroke-linecap="square" stroke-miterlimit="10" x1="721.281" y1="366.25" x2="798.75" y2="366.25"/>
	
		<line display="inline" fill="none" stroke="#000000" stroke-width="2.5" stroke-linecap="square" stroke-miterlimit="10" x1="792.5" y1="418.75" x2="792.5" y2="373.326"/>
	
		<line display="inline" fill="none" stroke="#000000" stroke-width="2.5" stroke-linecap="square" stroke-miterlimit="10" x1="798.75" y1="418.75" x2="798.75" y2="367.5"/>
	
		<line display="inline" fill="none" stroke="#000000" stroke-width="2.5" stroke-linecap="square" stroke-miterlimit="10" x1="721.25" y1="418.75" x2="726.968" y2="418.75"/>
	
		<line display="inline" fill="none" stroke="#000000" stroke-width="2.5" stroke-linecap="square" stroke-miterlimit="10" x1="793.75" y1="418.75" x2="798.125" y2="418.75"/>
	
		<line display="inline" fill="none" stroke="#000000" stroke-width="1.25" stroke-miterlimit="10" x1="728.75" y1="380" x2="792.5" y2="380"/>
	
		<line display="inline" fill="none" stroke="#000000" stroke-width="1.25" stroke-miterlimit="10" x1="728.75" y1="390" x2="792.5" y2="390"/>
	
		<line display="inline" fill="none" stroke="#000000" stroke-width="1.25" stroke-miterlimit="10" x1="728.75" y1="400" x2="792.5" y2="400"/>
	
		<line display="inline" fill="none" stroke="#000000" stroke-width="1.25" stroke-miterlimit="10" x1="727.5" y1="410" x2="791.25" y2="410"/>
	
		<line display="inline" fill="none" stroke="#000000" stroke-width="1.25" stroke-miterlimit="10" x1="757.5" y1="407.5" x2="762.5" y2="407.5"/>
</g>
<g id="Awning" display="none">
	
		<line display="inline" fill="none" stroke="#000000" stroke-width="2.5" stroke-linecap="square" stroke-miterlimit="10" x1="735.25" y1="380" x2="798.75" y2="380"/>
	
		<line display="inline" fill="none" stroke="#000000" stroke-width="1.25" stroke-linecap="square" stroke-miterlimit="10" x1="720" y1="413.75" x2="737.5" y2="381.25"/>
	
		<line display="inline" fill="none" stroke="#000000" stroke-width="1.25" stroke-linecap="square" stroke-miterlimit="10" x1="727.5" y1="413.75" x2="745" y2="381.25"/>
	
		<line display="inline" fill="none" stroke="#000000" stroke-width="1.25" stroke-linecap="square" stroke-miterlimit="10" x1="736.25" y1="413.75" x2="753.75" y2="381.25"/>
	
		<line display="inline" fill="none" stroke="#000000" stroke-width="1.25" stroke-linecap="square" stroke-miterlimit="10" x1="745" y1="413.75" x2="762.5" y2="381.25"/>
	
		<line display="inline" fill="none" stroke="#000000" stroke-width="1.25" stroke-linecap="square" stroke-miterlimit="10" x1="753.75" y1="413.75" x2="771.25" y2="381.25"/>
	
		<line display="inline" fill="none" stroke="#000000" stroke-width="1.25" stroke-linecap="square" stroke-miterlimit="10" x1="762.5" y1="413.75" x2="780" y2="381.25"/>
	
		<line display="inline" fill="none" stroke="#000000" stroke-width="1.25" stroke-linecap="square" stroke-miterlimit="10" x1="771.25" y1="413.75" x2="788.75" y2="381.25"/>
	
		<line display="inline" fill="none" stroke="#000000" stroke-width="1.25" stroke-linecap="square" stroke-miterlimit="10" x1="780" y1="413.75" x2="797.5" y2="381.25"/>
	
		<rect x="720" y="413.75" display="inline" fill="none" stroke="#000000" stroke-width="1.25" stroke-linecap="square" stroke-miterlimit="10" width="60" height="5"/>
	
		<line display="inline" fill="none" stroke="#000000" stroke-width="1.25" stroke-linecap="square" stroke-miterlimit="10" x1="727.5" y1="413.75" x2="727.5" y2="418.75"/>
	
		<line display="inline" fill="none" stroke="#000000" stroke-width="1.25" stroke-linecap="square" stroke-miterlimit="10" x1="736.25" y1="413.75" x2="736.25" y2="418.75"/>
	
		<line display="inline" fill="none" stroke="#000000" stroke-width="1.25" stroke-linecap="square" stroke-miterlimit="10" x1="745" y1="413.75" x2="745" y2="418.75"/>
	
		<line display="inline" fill="none" stroke="#000000" stroke-width="1.25" stroke-linecap="square" stroke-miterlimit="10" x1="753.75" y1="413.75" x2="753.75" y2="418.75"/>
	
		<line display="inline" fill="none" stroke="#000000" stroke-width="1.25" stroke-linecap="square" stroke-miterlimit="10" x1="762.5" y1="413.75" x2="762.5" y2="418.75"/>
	
		<line display="inline" fill="none" stroke="#000000" stroke-width="1.25" stroke-linecap="square" stroke-miterlimit="10" x1="771.25" y1="413.75" x2="771.25" y2="418.75"/>
</g>
<g id="roller_shutter" display="none">
	
		<rect x="726.25" y="341.25" display="inline" fill="none" stroke="#000000" stroke-width="2.5" stroke-linecap="square" stroke-miterlimit="10" width="67.5" height="12.5"/>
	
		<rect x="726.25" y="415.039" display="inline" fill="none" stroke="#000000" stroke-width="2.5" stroke-linecap="square" stroke-miterlimit="10" width="67.5" height="3.672"/>
	
		<rect x="728.75" y="353.75" display="inline" fill="none" stroke="#000000" stroke-width="2.5" stroke-linecap="square" stroke-miterlimit="10" width="62.5" height="61.25"/>
	
		<rect x="728.75" y="358.75" display="inline" fill="none" stroke="#000000" stroke-width="1.25" stroke-linecap="square" stroke-miterlimit="10" width="62.5" height="5"/>
	
		<rect x="728.75" y="368.75" display="inline" fill="none" stroke="#000000" stroke-width="1.25" stroke-linecap="square" stroke-miterlimit="10" width="62.5" height="5"/>
	
		<rect x="728.75" y="378.75" display="inline" fill="none" stroke="#000000" stroke-width="1.25" stroke-linecap="square" stroke-miterlimit="10" width="62.5" height="5"/>
</g>
<g id="tilt_garage_door" display="none">
	
		<line display="inline" fill="none" stroke="#000000" stroke-width="2.5" stroke-linecap="square" stroke-miterlimit="10" x1="727" y1="418.688" x2="727" y2="373.396"/>
	
		<line display="inline" fill="none" stroke="#000000" stroke-width="2.5" stroke-linecap="square" stroke-miterlimit="10" x1="721.281" y1="418.688" x2="721.281" y2="368.053"/>
	
		<line display="inline" fill="none" stroke="#000000" stroke-width="2.5" stroke-linecap="square" stroke-miterlimit="10" x1="727" y1="373.388" x2="793.125" y2="373.388"/>
	
		<line display="inline" fill="none" stroke="#000000" stroke-width="2.5" stroke-linecap="square" stroke-miterlimit="10" x1="721.281" y1="367.896" x2="798.75" y2="367.896"/>
	
		<line display="inline" fill="none" stroke="#000000" stroke-width="2.5" stroke-linecap="square" stroke-miterlimit="10" x1="793.125" y1="418.75" x2="793.125" y2="373.388"/>
	
		<line display="inline" fill="none" stroke="#000000" stroke-width="2.5" stroke-linecap="square" stroke-miterlimit="10" x1="798.75" y1="418.75" x2="798.75" y2="367.979"/>
	
		<line display="inline" fill="none" stroke="#000000" stroke-width="2.5" stroke-linecap="square" stroke-miterlimit="10" x1="721.281" y1="418.688" x2="727" y2="418.688"/>
	
		<line display="inline" fill="none" stroke="#000000" stroke-width="2.5" stroke-linecap="square" stroke-miterlimit="10" x1="793.125" y1="418.75" x2="798.75" y2="418.75"/>
	<polygon display="inline" fill="#FFFFFF" stroke="#000000" stroke-width="1.25" stroke-miterlimit="10" points="795,405 725,405 
		730,375 790,375 	"/>
	
		<line display="inline" fill="none" stroke="#000000" stroke-width="1.25" stroke-miterlimit="10" x1="756.25" y1="400" x2="763.75" y2="400"/>
</g>
<g id="sun_sail" display="none">
	
		<polygon display="inline" fill="none" stroke="#000000" stroke-width="1.25" stroke-linejoin="round" stroke-miterlimit="10" points="
		799.373,410.862 720.642,410.862 730,370 767.167,370 790,370 	"/>
	<path display="inline" fill="none" stroke="#000000" stroke-width="1.25" stroke-miterlimit="10" d="M760.015,414.438
		c0,0,0,5-4.922,5s-4.922-5-4.922-5s0,5-4.922,5c-4.92,0-4.92-5-4.92-5s0,5-4.922,5s-4.922-5-4.922-5s0,5-4.922,5s-4.922-5-4.922-5
		v-3.575"/>
	<polyline display="inline" fill="none" stroke="#000000" stroke-width="1.25" stroke-miterlimit="10" points="760,370 760,410.862 
		760,414.541 	"/>
	
		<line display="inline" fill="none" stroke="#000000" stroke-width="1.25" stroke-miterlimit="10" x1="730.501" y1="411.067" x2="737.837" y2="370"/>
	
		<line display="inline" fill="none" stroke="#000000" stroke-width="1.25" stroke-miterlimit="10" x1="740.312" y1="410.862" x2="745.375" y2="370"/>
	
		<line display="inline" fill="none" stroke="#000000" stroke-width="1.25" stroke-miterlimit="10" x1="750.187" y1="410.862" x2="752.5" y2="370"/>
	
		<line display="inline" fill="none" stroke="#000000" stroke-width="1.25" stroke-miterlimit="10" x1="730.501" y1="414.719" x2="730.501" y2="410.938"/>
	
		<line display="inline" fill="none" stroke="#000000" stroke-width="1.25" stroke-miterlimit="10" x1="740.312" y1="414.719" x2="740.312" y2="410.862"/>
	
		<line display="inline" fill="none" stroke="#000000" stroke-width="1.25" stroke-miterlimit="10" x1="750.187" y1="414.719" x2="750.187" y2="410.862"/>
	<path display="inline" fill="none" stroke="#000000" stroke-width="1.25" stroke-miterlimit="10" d="M799.386,414.438
		c0,0,0,5-4.922,5c-4.92,0-4.92-5-4.92-5s0,5-4.922,5s-4.922-5-4.922-5s0,5-4.922,5c-4.92,0-4.92-5-4.92-5s0,5-4.924,5
		c-4.922,0-4.922-5-4.922-5V410"/>
	
		<line display="inline" fill="none" stroke="#000000" stroke-width="1.25" stroke-miterlimit="10" x1="799.373" y1="410.862" x2="799.373" y2="414.5"/>
	<polyline display="inline" fill="none" stroke="#000000" stroke-width="1.25" stroke-miterlimit="10" points="769.875,414.719 
		769.875,410.862 767.583,370 	"/>
	<polyline display="inline" fill="none" stroke="#000000" stroke-width="1.25" stroke-miterlimit="10" points="779.685,414.719 
		779.685,410.862 775.333,370.273 	"/>
	<polyline display="inline" fill="none" stroke="#000000" stroke-width="1.25" stroke-miterlimit="10" points="789.56,414.719 
		789.56,410.862 782.833,370 	"/>
	
		<line display="inline" fill="none" stroke="#000000" stroke-width="2.5" stroke-miterlimit="10" x1="727.333" y1="370" x2="792.833" y2="370"/>
</g>
<g id="exterior_shutter" display="none">
	
		<rect x="742.5" y="367.5" display="inline" fill="none" stroke="#000000" stroke-width="2.5" stroke-linecap="square" stroke-miterlimit="10" width="35" height="51.25"/>
	
		<rect x="781.25" y="368.75" display="inline" fill="none" stroke="#000000" stroke-width="2.5" stroke-linecap="square" stroke-miterlimit="10" width="17.5" height="48.75"/>
	
		<rect x="721.25" y="368.75" display="inline" fill="none" stroke="#000000" stroke-width="2.5" stroke-linecap="square" stroke-miterlimit="10" width="17.5" height="48.75"/>
	
		<line display="inline" fill="none" stroke="#000000" stroke-width="1.25" stroke-linecap="square" stroke-miterlimit="10" x1="743.75" y1="393.75" x2="777.5" y2="393.75"/>
	
		<line display="inline" fill="none" stroke="#000000" stroke-width="1.25" stroke-linecap="square" stroke-miterlimit="10" x1="760" y1="367.5" x2="760" y2="417.5"/>
	
		<line display="inline" fill="none" stroke="#000000" stroke-width="1.25" stroke-linecap="square" stroke-miterlimit="10" x1="778.75" y1="381.25" x2="781.25" y2="381.25"/>
	
		<line display="inline" fill="none" stroke="#000000" stroke-width="1.25" stroke-linecap="square" stroke-miterlimit="10" x1="742.5" y1="382.5" x2="740" y2="382.5"/>
	
		<line display="inline" fill="none" stroke="#000000" stroke-width="1.25" stroke-linecap="square" stroke-miterlimit="10" x1="742.5" y1="410" x2="740" y2="410"/>
	
		<line display="inline" fill="none" stroke="#000000" stroke-width="1.25" stroke-linecap="square" stroke-miterlimit="10" x1="777.5" y1="410" x2="781.25" y2="410"/>
	
		<line display="inline" fill="none" stroke="#000000" stroke-width="1.25" stroke-linecap="square" stroke-miterlimit="10" x1="723.75" y1="392.5" x2="723.75" y2="397.5"/>
	
		<line display="inline" fill="none" stroke="#000000" stroke-width="1.25" stroke-linecap="square" stroke-miterlimit="10" x1="796.25" y1="392.5" x2="796.25" y2="397.5"/>
</g>
<g id="roller_blind" display="none">
	
		<rect x="731.25" y="345" display="inline" fill="none" stroke="#000000" stroke-width="2.5" stroke-linecap="square" stroke-miterlimit="10" width="57.5" height="73.75"/>
	
		<rect x="733.75" y="346.25" display="inline" fill="none" stroke="#000000" stroke-width="1.25" stroke-linecap="square" stroke-miterlimit="10" width="52.5" height="52.5"/>
	
		<line display="inline" fill="none" stroke="#000000" stroke-width="1.25" stroke-linecap="square" stroke-miterlimit="10" x1="760" y1="398.75" x2="760" y2="403.75"/>
	<path display="inline" fill="none" stroke="#000000" stroke-width="1.25" stroke-linecap="square" stroke-miterlimit="10" d="
		M761.25,405c0,0.69-0.559,1.25-1.25,1.25l0,0c-0.689,0-1.25-0.56-1.25-1.25l0,0c0-0.69,0.561-1.25,1.25-1.25l0,0
		C760.691,403.75,761.25,404.31,761.25,405L761.25,405z"/>
	
		<rect x="727.5" y="341.25" display="inline" fill="none" stroke="#000000" stroke-width="2.5" stroke-linecap="square" stroke-miterlimit="10" width="65" height="3.75"/>
</g>
<g id="clock" display="none">
	<circle display="inline" fill="none" stroke="#1D1D1B" stroke-width="2.5" stroke-miterlimit="10" cx="760" cy="380" r="38.75"/>
	
		<line display="inline" fill="none" stroke="#1D1D1B" stroke-width="1.25" stroke-miterlimit="10" x1="760" y1="380" x2="785" y2="355"/>
	
		<line display="inline" fill="none" stroke="#1D1D1B" stroke-width="1.25" stroke-miterlimit="10" x1="760" y1="380" x2="760" y2="400.375"/>
	
		<circle display="inline" fill="#1D1D1B" stroke="#1D1D1B" stroke-width="1.25" stroke-miterlimit="10" cx="760" cy="380" r="1.016"/>
</g>
<g id="hourglas">
</g>
<g id="camera">
</g>
<g id="share" display="none">
	
		<circle display="inline" fill="none" stroke="#1D1D1B" stroke-width="2.5" stroke-miterlimit="10" cx="791.25" cy="411.25" r="7.5"/>
	
		<circle display="inline" fill="none" stroke="#1D1D1B" stroke-width="2.5" stroke-miterlimit="10" cx="791.25" cy="348.75" r="7.5"/>
	<circle display="inline" fill="none" stroke="#1D1D1B" stroke-width="2.5" stroke-miterlimit="10" cx="728.75" cy="380" r="7.5"/>
	
		<line display="inline" fill="none" stroke="#1D1D1B" stroke-width="2.5" stroke-miterlimit="10" x1="783.75" y1="408.75" x2="735" y2="383.75"/>
	
		<line display="inline" fill="none" stroke="#1D1D1B" stroke-width="2.5" stroke-miterlimit="10" x1="735" y1="376.25" x2="785" y2="352.5"/>
</g>
<g id="routine" display="none">
	<circle display="inline" fill="none" stroke="#1D1D1B" stroke-width="2.5" stroke-miterlimit="10" cx="728.75" cy="380" r="7.5"/>
	<circle display="inline" fill="none" stroke="#1D1D1B" stroke-width="2.5" stroke-miterlimit="10" cx="760" cy="348.75" r="7.5"/>
	<circle display="inline" fill="none" stroke="#1D1D1B" stroke-width="2.5" stroke-miterlimit="10" cx="760" cy="411.25" r="7.5"/>
	<circle display="inline" fill="none" stroke="#1D1D1B" stroke-width="2.5" stroke-miterlimit="10" cx="791.25" cy="380" r="7.5"/>
	
		<line display="inline" fill="none" stroke="#1D1D1B" stroke-width="2.5" stroke-miterlimit="10" x1="760" y1="356.25" x2="760" y2="403.75"/>
	
		<line display="inline" fill="none" stroke="#1D1D1B" stroke-width="2.5" stroke-miterlimit="10" x1="733.75" y1="375" x2="755" y2="353.75"/>
	
		<line display="inline" fill="none" stroke="#1D1D1B" stroke-width="2.5" stroke-miterlimit="10" x1="765" y1="406.25" x2="786.25" y2="385"/>
</g>
<g id="routine_OK">
	<path d="M728.4,378.195c0,8.768-7.109,15.875-15.875,15.875s-15.875-7.107-15.875-15.875s7.109-15.875,15.875-15.875
		S728.4,369.427,728.4,378.195z M712.525,366.289c-6.573,0-11.906,5.331-11.906,11.906s5.333,11.906,11.906,11.906
		c6.576,0,11.906-5.331,11.906-11.906S719.101,366.289,712.525,366.289z"/>
	<path d="M776.025,425.82c0,8.769-7.109,15.875-15.875,15.875s-15.875-7.106-15.875-15.875s7.109-15.875,15.875-15.875
		S776.025,417.051,776.025,425.82z M760.15,413.914c-6.573,0-11.906,5.332-11.906,11.906c0,6.575,5.333,11.906,11.906,11.906
		c6.576,0,11.906-5.331,11.906-11.906C772.056,419.245,766.726,413.914,760.15,413.914z"/>
	<path d="M776.025,330.57c0,8.768-7.109,15.875-15.875,15.875s-15.875-7.107-15.875-15.875s7.109-15.875,15.875-15.875
		S776.025,321.802,776.025,330.57z M760.15,318.664c-6.573,0-11.906,5.331-11.906,11.906s5.333,11.906,11.906,11.906
		c6.576,0,11.906-5.331,11.906-11.906S766.726,318.664,760.15,318.664z"/>
	<path d="M823.65,378.195c0,8.768-7.109,15.875-15.875,15.875s-15.875-7.107-15.875-15.875s7.109-15.875,15.875-15.875
		S823.65,369.427,823.65,378.195z M807.775,366.289c-6.573,0-11.906,5.331-11.906,11.906s5.333,11.906,11.906,11.906
		c6.576,0,11.906-5.331,11.906-11.906S814.351,366.289,807.775,366.289z"/>
	
		<rect x="734.349" y="334.727" transform="matrix(-0.7069 -0.7073 0.7073 -0.7069 1006.2194 1125.6863)" width="3.969" height="39.289"/>
	
		<rect x="782.556" y="382.932" transform="matrix(-0.7072 -0.707 0.707 -0.7072 1054.7762 1241.9474)" width="3.968" height="39.289"/>
	<rect x="758.166" y="344.46" width="3.969" height="67.469"/>
</g>
<g id="alarm">
</g>
</svg>
