<svg xmlns="http://www.w3.org/2000/svg" width="128" height="128" viewBox="0 0 128 128"><g fill="#1D1D1B"><path d="M63.998 4C97.083 4 124 30.916 124 64s-26.917 60-60.002 60C30.915 124 4 97.084 4 64S30.915 4 63.998 4m0-4C28.653 0 0 28.653 0 64s28.653 64 63.998 64C99.348 128 128 99.347 128 64S99.347 0 63.998 0z"/><path d="M64 36.2c15.33 0 27.8 12.47 27.8 27.8 0 15.328-12.47 27.798-27.8 27.798s-27.8-12.47-27.8-27.8c0-15.327 12.47-27.797 27.8-27.797m0-4c-17.563 0-31.8 14.235-31.8 31.8 0 17.56 14.236 31.798 31.8 31.798 17.56 0 31.8-14.24 31.8-31.8 0-17.563-14.24-31.797-31.8-31.797z"/><path d="M68.263 71.48h-8.64L55.305 64l4.318-7.48h8.64L72.58 64l-4.317 7.48zm-7.486-2h6.33L70.272 64l-3.16-5.48h-6.332L57.613 64l3.164 5.48z"/><path d="M68.32 58.52h-8.64l-4.318-7.48 4.318-7.48h8.64l4.317 7.48-4.317 7.48zm-7.485-2h6.33l3.164-5.48-3.164-5.48h-6.33l-3.165 5.48 3.165 5.48zM68.32 84.44h-8.64l-4.318-7.478 4.318-7.48h8.64l4.317 7.48-4.317 7.48zm-7.485-2h6.33l3.164-5.478-3.164-5.48h-6.33l-3.165 5.48 3.165 5.48z"/><path d="M56.998 77.96h-8.64l-4.317-7.48L48.36 63h8.64l4.317 7.48-4.317 7.48zm-7.485-2h6.33l3.164-5.48L55.844 65h-6.33l-3.164 5.48 3.163 5.48z"/><path d="M56.998 65h-8.64l-4.317-7.48 4.318-7.48h8.64l4.317 7.48L56.998 65zm-7.485-2h6.33l3.164-5.48-3.163-5.48h-6.33l-3.164 5.48L49.513 63zM79.435 65h-8.64l-4.316-7.48 4.315-7.48h8.64l4.318 7.48L79.435 65zm-7.486-2h6.33l3.164-5.48-3.164-5.48h-6.33l-3.163 5.48L71.95 63z"/><path d="M79.435 77.96h-8.64l-4.316-7.48L70.794 63h8.64l4.318 7.48-4.318 7.48zm-7.486-2h6.33l3.164-5.48L78.28 65h-6.33l-3.163 5.48 3.162 5.48z"/><path d="M79.435 90.922h-8.64l-4.316-7.48 4.315-7.48h8.64l4.318 7.48-4.318 7.48zm-7.486-2h6.33l3.164-5.48-3.164-5.48h-6.33l-3.163 5.48 3.162 5.48zM56.998 90.922h-8.64l-4.317-7.48 4.318-7.48h8.64l4.317 7.48-4.317 7.48zm-7.485-2h6.33l3.164-5.48-3.163-5.48h-6.33l-3.164 5.48 3.163 5.48zM45.776 71.48h-8.64L32.82 64l4.317-7.48h8.64L50.093 64l-4.318 7.48zm-7.484-2h6.33L47.786 64l-3.164-5.48h-6.33L35.128 64l3.164 5.48zM56.998 52.04h-8.64l-4.317-7.48 4.318-7.48h8.64l4.317 7.48-4.317 7.48zm-7.485-2h6.33l3.164-5.48-3.163-5.48h-6.33l-3.164 5.48 3.163 5.48zM79.435 52.04h-8.64l-4.316-7.48 4.315-7.48h8.64l4.318 7.48-4.318 7.48zm-7.486-2h6.33l3.164-5.48-3.164-5.48h-6.33l-3.163 5.48 3.162 5.48zM90.88 71.48h-8.638L77.924 64l4.318-7.48h8.638L95.197 64l-4.317 7.48zm-7.484-2h6.33L92.888 64l-3.164-5.48h-6.33L80.233 64l3.164 5.48z"/></g></svg>