<svg xmlns="http://www.w3.org/2000/svg" width="128" height="128" viewBox="0 0 128 128"><path d="M64.067 4c6.62 0 12.006 5.384 12.006 12.002v71.714l1.05 1.146.122.133.12.13.13.12c4.134 3.78 6.505 9.16 6.505 14.76C84 115.03 75.028 124 64 124s-20-8.97-20-19.995c0-5.68 2.433-11.116 6.673-14.91l1.332-1.19v-1.788L52.063 16c0-6.616 5.385-12 12.005-12m0-4C55.227 0 48.06 7.164 48.06 16.002l-.055 70.112C43.095 90.51 40 96.896 40 104.004 40 117.258 50.746 128 64 128c13.255 0 24-10.743 24-23.995 0-7.013-3.007-13.323-7.805-17.71l-.122-.134V16.003C80.073 7.164 72.908 0 64.067 0z"/><circle cx="64" cy="104" r="8"/><path d="M62 16h4v82h-4z"/><path d="M56 79h16v2H56zM56 63h16v2H56zM56 47h16v2H56zM56 31h16v2H56z"/></svg>