<svg xmlns="http://www.w3.org/2000/svg" width="128" height="128" viewBox="0 0 128 128"><path fill="#1D1D1B" d="M108 4v16H20V4h88m4-4H16v24h96V0zM108 31v93H20V31h88m4-4H16v101h96V27z"/><path fill="#1D1D1B" d="M29 10c1.103 0 2 .897 2 2s-.897 2-2 2-2-.897-2-2 .897-2 2-2m0-2c-2.21 0-4 1.79-4 4s1.79 4 4 4 4-1.79 4-4-1.79-4-4-4zM40 10c1.103 0 2 .897 2 2s-.897 2-2 2-2-.897-2-2 .897-2 2-2m0-2c-2.21 0-4 1.79-4 4s1.79 4 4 4 4-1.79 4-4-1.79-4-4-4z"/><path fill="none" stroke="#1D1D1B" stroke-width="2" stroke-miterlimit="10" d="M96 8v8M84 8v8M72 8v8M24 35h80v85H24z"/><path fill="none" stroke="#1D1D1B" stroke-width="4" stroke-miterlimit="10" d="M52 43h24"/><g fill="#1D1D1B"><path d="M108 4v16H20V4h88m4-4H16v24h96V0zM108 31v93H20V31h88m4-4H16v101h96V27z"/><path d="M29 10c1.103 0 2 .897 2 2s-.897 2-2 2-2-.897-2-2 .897-2 2-2m0-2c-2.21 0-4 1.79-4 4s1.79 4 4 4 4-1.79 4-4-1.79-4-4-4zM40 10c1.103 0 2 .897 2 2s-.897 2-2 2-2-.897-2-2 .897-2 2-2m0-2c-2.21 0-4 1.79-4 4s1.79 4 4 4 4-1.79 4-4-1.79-4-4-4zM95 8h2v8h-2zM83 8h2v8h-2zM71 8h2v8h-2zM105 121H23V34h82v87zm-80-2h78V36H25v83z"/><path d="M52 41h24v4H52z"/></g></svg>