<svg xmlns="http://www.w3.org/2000/svg" width="128" height="128" viewBox="0 0 128 128"><g fill="#1D1D1B"><path d="M64 128C28.71 128 0 99.29 0 64S28.71 0 64 0s64 28.71 64 64-28.71 64-64 64zM64 4C30.916 4 4 30.916 4 64s26.916 60 60 60 60-26.916 60-60S97.084 4 64 4z"/><path d="M64 128c-6.116 0-11.423-6.77-15.347-19.573C45.008 96.532 43 80.754 43 64s2.008-32.532 5.653-44.427C52.577 6.77 57.883 0 64 0s11.423 6.77 15.347 19.573C82.992 31.468 85 47.246 85 64s-2.008 32.532-5.653 44.427C75.423 121.23 70.117 128 64 128zM64 4c-8.04 0-17 24.64-17 60s8.96 60 17 60 17-24.64 17-60S72.04 4 64 4z"/><path d="M64 128c-25.916 0-47-28.71-47-64S38.084 0 64 0s47 28.71 47 64-21.084 64-47 64zM64 4C40.29 4 21 30.916 21 64s19.29 60 43 60 43-26.916 43-60S87.71 4 64 4z"/><path d="M2 62h126v4H2zM11 30h105v4H11zM11 94h107v4H11z"/></g></svg>