<svg xmlns="http://www.w3.org/2000/svg" width="128" height="128" viewBox="0 0 128 128"><path d="M90 34V6.317C90 2.833 86.86 0 83 0s-7 2.833-7 6.317V34H52V7c0-3.86-3.14-7-7-7s-7 3.14-7 7v27H16v12h96V34H90zM80 7c0-1.654 1.346-3 3-3s3 1.346 3 3v27h-6V7zM42 7c0-1.654 1.346-3 3-3s3 1.346 3 3v27h-6V7zm66 35H20v-4h88v4zM93 111H35c-5.794 0-10-4.626-10-11 0-6.122-.078-49.997-.078-49.997L24.918 48H104v52c0 5.087-4.805 11-11 11zM28.926 52c.014 8.658.074 42.665.074 48 0 3.484 1.855 7 6 7h58c4.06 0 7-4.18 7-7V52H28.926z"/><path d="M112 46H16V34h96v12zm-92-4h88v-4H20v4zM72 128H56v-20h16v20zm-14-2h12v-16H58v16z"/></svg>