<svg xmlns="http://www.w3.org/2000/svg" width="128" height="128" viewBox="0 0 128 128"><g fill="#1D1D1B"><path d="M64 128c-32.257 0-58.5-26.243-58.5-58.5S31.743 11 64 11s58.5 26.243 58.5 58.5S96.257 128 64 128zm0-113C33.948 15 9.5 39.45 9.5 69.5S33.948 124 64 124s54.5-24.45 54.5-54.5S94.052 15 64 15z"/><circle cx="64" cy="69.5" r="3.5"/><path d="M63 21.5h2V69h-2z"/><path d="M63.293 68.292l1.414 1.415-22 22-1.414-1.415zM42.918 1.318l2.162 3.364-28 17.995-2.162-3.364zM85.083 1.32l28 18.003-2.162 3.364-28-18.002z"/></g></svg>