<svg xmlns="http://www.w3.org/2000/svg" width="128" height="128" viewBox="0 0 128 128"><g fill="#1D1D1B"><path d="M108 4v16H20V4h88m4-4H16v24h96V0zM108 31v93H20V31h88m4-4H16v101h96V27z"/><path d="M64 51.5c15.715 0 28.5 12.785 28.5 28.5S79.715 108.5 64 108.5 35.5 95.715 35.5 80 48.285 51.5 64 51.5m0-4c-17.95 0-32.5 14.55-32.5 32.5s14.55 32.5 32.5 32.5S96.5 97.95 96.5 80 81.95 47.5 64 47.5z"/><path d="M38.173 86.222l-1.307-1.515c.227-.195 5.583-4.766 10.228-4.766 2.067 0 4.178.793 6.622 1.71 2.948 1.104 6.29 2.357 10.196 2.357 3.75 0 6.706-1.25 9.564-2.46 2.446-1.034 4.758-2.012 7.256-2.012 4.665 0 10.188 4.978 10.42 5.19l-1.345 1.48c-.052-.047-5.185-4.67-9.075-4.67-2.093 0-4.124.86-6.477 1.855-2.9 1.227-6.188 2.618-10.344 2.618-4.268 0-7.79-1.32-10.897-2.486-2.262-.848-4.216-1.58-5.92-1.58-3.908 0-8.87 4.238-8.92 4.28zM29 10c1.103 0 2 .897 2 2s-.897 2-2 2-2-.897-2-2 .897-2 2-2m0-2c-2.21 0-4 1.79-4 4s1.79 4 4 4 4-1.79 4-4-1.79-4-4-4zM42 10c1.103 0 2 .897 2 2s-.897 2-2 2-2-.897-2-2 .897-2 2-2m0-2c-2.21 0-4 1.79-4 4s1.79 4 4 4 4-1.79 4-4-1.79-4-4-4z"/></g></svg>