<svg xmlns="http://www.w3.org/2000/svg" width="128" height="128" viewBox="0 0 128 128"><g fill="#1D1D1B"><path d="M128 128H0V96h128v32zM4 124h120v-24H4v24z"/><path d="M93 117c-2.757 0-5-2.243-5-5s2.243-5 5-5 5 2.243 5 5-2.243 5-5 5zm0-8c-1.654 0-3 1.346-3 3s1.346 3 3 3 3-1.346 3-3-1.346-3-3-3zM111 117c-2.757 0-5-2.243-5-5s2.243-5 5-5 5 2.243 5 5-2.243 5-5 5zm0-8c-1.654 0-3 1.346-3 3s1.346 3 3 3 3-1.346 3-3-1.346-3-3-3zM18 118h-8v-11h8v11zm-6-2h4v-7h-4v7zM35.035 98.263L17 32.133V32c-.012-.45-.194-1-1-1-.747 0-.96.474-.995.91l14.97 65.868-1.95.443L13 32.113V32c0-1.206.8-3 3-3 2.112 0 2.934 1.652 2.996 2.852l17.97 65.885-1.93.526zM93.965 98.263l-1.93-.526 17.97-65.885c.06-1.2.883-2.852 2.995-2.852 2.2 0 3 1.794 3 3l-.024.222-15 66-1.95-.443 14.97-65.87c-.035-.43-.244-.91-.996-.91-.806 0-.988.55-1 1.012l-.035.25-18 66z"/></g></svg>