<svg xmlns="http://www.w3.org/2000/svg" width="128" height="128" viewBox="0 0 128 128"><path d="M104.943 80.394c0-.34.057-.683.057-1.025C105 61.06 89.915 46 71.63 46c-13.174 0-25.857 8.304-31.172 19.437-2.314-1.167-4.884-1.822-7.657-1.822-8.456 0-15.455 6.748-16.826 14.805C5.916 81.894 0 90.644 0 101.92 0 116.1 11.456 128 25.602 128h78.97C117.43 128 128 116.925 128 103.998c0-12.983-10.114-23.575-23.057-23.604zm-.516 42.937l-.912.115H25.83c-11.687 0-21.2-9.937-21.2-21.668 0-9.083 4.43-16.267 13-19.23l2.4-.853.428-2.506C21.485 73.038 26.772 68 33 68c1.972 0 3.916.455 5.688 1.366l3.856 1.936 1.857-3.9c4.744-9.937 16.228-16.93 27.172-16.93 15.8 0 28.828 12.555 28.828 28.386 0 3.787-.058 5.78-.058 5.78l4.344.028c10.484.142 18.74 8.684 18.74 19.19.002 10.506-8.512 19.418-19 19.475z"/></svg>