<svg xmlns="http://www.w3.org/2000/svg" width="128" height="128" viewBox="0 0 128 128"><path d="M32 124h64v4H32zM68.405 5.577l23.147 22.815-2.808 2.85L65.597 8.424zM59.08 6.023l2.826 2.83-53.83 53.755-2.827-2.83z"/><path d="M8.437 65.608l58 60-2.877 2.78-57.998-60zM98.583 57.004l10.83.02c-.46 2.825-2.712 4.976-5.41 4.976-2.71 0-4.966-2.16-5.42-4.996M96.553 55c-.033.312-.053.63-.053.954 0 4.444 3.357 8.046 7.502 8.046 4.143 0 7.498-3.603 7.498-8.046 0-.277.005-.655-.022-.926L96.553 55zM64 2c1.654 0 3 1.346 3 3s-1.346 3-3 3c-1.653 0-3-1.346-3-3s1.347-3 3-3m0-2c-2.76 0-5 2.24-5 5s2.24 5 5 5 5-2.24 5-5-2.237-5-5-5zM93 30c1.654 0 3 1.346 3 3s-1.346 3-3 3c-1.653 0-3-1.346-3-3s1.347-3 3-3m0-2c-2.76 0-5 2.24-5 5s2.24 5 5 5 5-2.24 5-5-2.237-5-5-5z"/><path d="M5 61c1.653 0 3 1.346 3 3s-1.347 3-3 3c-1.654 0-3-1.346-3-3s1.346-3 3-3m0-2c-2.763 0-5 2.24-5 5s2.237 5 5 5 5-2.24 5-5-2.237-5-5-5zM104 37c9.658 0 17.74 6.882 19.6 16H84.4c1.86-9.118 9.942-16 19.6-16m0-4c-13.256 0-24 10.746-24 24h48c0-13.254-10.746-24-24-24z"/></svg>