<svg xmlns="http://www.w3.org/2000/svg" width="128" height="128" viewBox="0 0 128 128"><path d="M100.984 47.06l-3.998-.118c.01-.313.014-.627.014-.942 0-18.196-14.804-33-33-33S31 27.804 31 46c0 .317.005.633.013.947l-3.998.105c-.01-.35-.015-.7-.015-1.052C27 25.598 43.598 9 64 9s37 16.598 37 37c0 .354-.005.707-.016 1.06z"/><path d="M125.68 113H2.32L27 87.197V45h4v43.803L11.68 109h104.64L97 88.803V45h4v42.197M54.918 12.293c-.277-.903-.418-1.844-.418-2.796C54.5 4.26 58.762 0 64 0s9.5 4.26 9.5 9.497c0 .952-.14 1.892-.418 2.794l-1.912-.587c.22-.712.33-1.455.33-2.207C71.5 5.363 68.136 2 64 2s-7.5 3.363-7.5 7.497c0 .753.11 1.496.33 2.21l-1.912.586z"/><path d="M64 128c-8.27 0-15-6.73-15-15 0-.715.052-1.436.152-2.142l1.98.284c-.087.612-.132 1.237-.132 1.858 0 7.168 5.832 13 13 13s13-5.832 13-13c0-.62-.045-1.245-.133-1.856l1.98-.284c.1.705.153 1.425.153 2.14 0 8.27-6.73 15-15 15z"/></svg>