<svg xmlns="http://www.w3.org/2000/svg" width="128" height="128" viewBox="0 0 128 128"><path fill="none" stroke="#000" stroke-width="2" stroke-miterlimit="10" d="M37 127h54"/><path fill="none" stroke="#000" stroke-width="4" stroke-miterlimit="10" d="M44 12v16M44 54v16"/><g fill="none" stroke="#000" stroke-width="4" stroke-miterlimit="10"><path d="M92 2H36c-1.1 0-2 .9-2 2v34h60V4c0-1.1-.9-2-2-2zM34 121c0 1.1.9 2 2 2h56c1.1 0 2-.9 2-2V44H34v77z"/></g><g><path d="M37 126h54v2H37zM42 12h4v16h-4zM42 54h4v16h-4z"/><path d="M36 121V46h-4v75c0 2.206 1.794 4 4 4h56c2.206 0 4-1.794 4-4V46h-4.002l-.004 75H36zM91.998 40H92v2h-.002zM92 4l-.002 32H96V4c0-2.206-1.794-4-4-4H36c-2.206 0-4 1.794-4 4v32h4V4h56zM36 42h55.998v4H36zM36 36h55.998v4H36z"/></g></svg>