<svg xmlns="http://www.w3.org/2000/svg" width="128" height="128" viewBox="0 0 128 128"><path d="M64 43c11.58 0 21 9.42 21 21s-9.42 21-21 21-21-9.42-21-21 9.42-21 21-21m0-4c-13.807 0-25 11.19-25 25s11.193 25 25 25 25-11.19 25-25-11.193-25-25-25zM62 0h4v32h-4zM62 96h4v32h-4zM96 62h32v4H96zM0 62h32v4H0zM107.796 17.437l2.83 2.83-22.642 22.64-2.828-2.83zM40.017 85.218l2.828 2.828-22.64 22.64-2.83-2.828zM20.204 17.437l22.64 22.64-2.828 2.83-22.64-22.64zM87.986 85.217l22.64 22.64-2.828 2.83-22.64-22.642z"/></svg>