<svg xmlns="http://www.w3.org/2000/svg" width="128" height="128" viewBox="0 0 128 128"><path fill="#1D1D1B" d="M108 4v16H20V4h88m4-4H16v24h96V0zM108 31v93H20V31h88m4-4H16v101h96V27z"/><path fill="#1D1D1B" d="M63.5 51.5C79.215 51.5 92 64.285 92 80s-12.785 28.5-28.5 28.5S35 95.715 35 80s12.785-28.5 28.5-28.5m0-4C45.55 47.5 31 62.05 31 80s14.55 32.5 32.5 32.5S96 97.95 96 80 81.45 47.5 63.5 47.5zM29 10c1.103 0 2 .897 2 2s-.897 2-2 2-2-.897-2-2 .897-2 2-2m0-2c-2.21 0-4 1.79-4 4s1.79 4 4 4 4-1.79 4-4-1.79-4-4-4zM42 10c1.103 0 2 .897 2 2s-.897 2-2 2-2-.897-2-2 .897-2 2-2m0-2c-2.21 0-4 1.79-4 4s1.79 4 4 4 4-1.79 4-4-1.79-4-4-4z"/><path fill="none" stroke="#1D1D1B" stroke-width="2" stroke-miterlimit="10" d="M54 68s-2 4-2 8 3.5 4 3.5 8-1.5 8-1.5 8M64 68s-2 4-2 8 3.5 4 3.5 8-1.5 8-1.5 8M74 68s-2 4-2 8 3.5 4 3.5 8-1.5 8-1.5 8"/><g fill="#1D1D1B"><path d="M108 4v16H20V4h88m4-4H16v24h96V0zM108 31v93H20V31h88m4-4H16v101h96V27z"/><path d="M63.5 51.5C79.215 51.5 92 64.285 92 80s-12.785 28.5-28.5 28.5S35 95.715 35 80s12.785-28.5 28.5-28.5m0-4C45.55 47.5 31 62.05 31 80s14.55 32.5 32.5 32.5S96 97.95 96 80 81.45 47.5 63.5 47.5zM29 10c1.103 0 2 .897 2 2s-.897 2-2 2-2-.897-2-2 .897-2 2-2m0-2c-2.21 0-4 1.79-4 4s1.79 4 4 4 4-1.79 4-4-1.79-4-4-4zM42 10c1.103 0 2 .897 2 2s-.897 2-2 2-2-.897-2-2 .897-2 2-2m0-2c-2.21 0-4 1.79-4 4s1.79 4 4 4 4-1.79 4-4-1.79-4-4-4z"/><path d="M54.937 92.352l-1.873-.702c.014-.04 1.436-3.887 1.436-7.65 0-1.625-.663-2.382-1.503-3.342C52.062 79.588 51 78.376 51 76c0-4.188 2.02-8.276 2.105-8.448l1.79.894C54.874 68.484 53 72.293 53 76c0 1.624.663 2.382 1.502 3.34.936 1.072 1.998 2.285 1.998 4.66 0 4.134-1.5 8.18-1.563 8.352zM64.937 92.352l-1.873-.702c.014-.04 1.436-3.887 1.436-7.65 0-1.625-.663-2.382-1.503-3.342C62.062 79.588 61 78.376 61 76c0-4.188 2.02-8.276 2.105-8.448l1.79.894C64.874 68.484 63 72.293 63 76c0 1.624.663 2.382 1.502 3.34.936 1.072 1.998 2.285 1.998 4.66 0 4.134-1.5 8.18-1.563 8.352zM74.937 92.352l-1.873-.702c.014-.04 1.436-3.887 1.436-7.65 0-1.625-.663-2.382-1.503-3.342C72.062 79.588 71 78.376 71 76c0-4.188 2.02-8.276 2.105-8.448l1.79.894C74.874 68.484 73 72.293 73 76c0 1.624.663 2.382 1.502 3.34.936 1.072 1.998 2.285 1.998 4.66 0 4.134-1.5 8.18-1.563 8.352z"/></g></svg>