<svg xmlns="http://www.w3.org/2000/svg" width="128" height="128" viewBox="0 0 128 128"><path fill="#1D1D1B" d="M64 128.004l-.127-.008c-.528-.034-13-.835-18.333-1.66-5.6-.865-14.51-1.81-17.52-1.62l-1.903.12-.21-1.895C25.383 118.197 21 71.85 21 59.184c0-22.923 2.44-40.975 7.457-55.185l.4-1.133 1.188-.18C30.225 2.66 48.125 0 64 0c15.878 0 33.775 2.66 33.954 2.686l1.188.18.4 1.132C104.562 18.208 107 36.26 107 59.183c0 12.666-4.383 59.013-4.907 63.757l-.21 1.896-1.903-.12c-3.01-.186-11.92.755-17.52 1.62-5.332.824-17.805 1.625-18.333 1.66l-.127.008zm-34.302-7.3c4.355.11 12.15 1.015 16.453 1.68 4.88.754 16.502 1.524 17.85 1.612 1.35-.087 12.972-.858 17.85-1.612 4.3-.665 12.097-1.57 16.452-1.68.984-9.833 4.698-49.965 4.698-61.52 0-21.536-2.3-39.26-6.835-52.712C91.935 5.888 77.23 4 64 4 50.762 4 36.062 5.888 31.835 6.472 27.3 19.922 25 37.648 25 59.182c0 11.557 3.714 51.69 4.698 61.523z"/><path d="M53.798 48.222h2.762c.387-.14.668-.415.748-.738H53.05c.08.324.363.598.748.738M43.976 46.008c.083.323.363.592.746.737h1.16l.06.023v2.93h.725v-2.93l.067-.023h1.16c.382-.145.663-.414.747-.737V46h-4.664v.008zM53.798 49.726h2.762c.387-.144.668-.416.748-.74H53.05c.08.324.363.596.748.74M53.798 46.788h2.762c.387-.144.668-.414.748-.74H53.05c.08.326.363.596.748.74M81.504 46.808h2.76c.386-.145.656-.4.736-.73h-4.257c.078.328.376.585.76.73M75.28 49.736c.355-.15.547-.418.622-.724h-3.184l.003-2.94-.712.002v3.653l3.27.01zM63.217 46.765h2.547c.383-.11.665-.4.742-.723h-4.002v2.178h3.31v.767H63.25c-.376.144-.655.392-.732.714l-.014.03h4.02v-2.234h-3.308v-.73zM80.883 47.512v2.238h.714v-1.49h2.594v1.49h.714v-2.233"/></svg>