<svg xmlns="http://www.w3.org/2000/svg" width="128" height="128" viewBox="0 0 128 128"><path d="M64 4c33.084 0 60 26.916 60 60s-26.916 60-60 60S4 97.084 4 64 30.916 4 64 4m0-4C28.653 0 0 28.654 0 64s28.653 64 64 64 64-28.654 64-64S99.347 0 64 0z"/><circle cx="64" cy="64" r="2"/><path d="M64 67c-1.654 0-3-1.346-3-3s1.346-3 3-3 3 1.346 3 3-1.346 3-3 3zm0-4c-.552 0-1 .45-1 1s.448 1 1 1 1-.45 1-1-.448-1-1-1z"/><path d="M101.29 24.305l1.43 1.395-38.007 38.993-1.43-1.395z"/><path d="M63 64h2v28h-2z"/></svg>