<svg xmlns="http://www.w3.org/2000/svg" width="128" height="128" viewBox="0 0 128 128"><path d="M118.432 11.977l-8.098 8.198-100.78-.18 7.918-8.02 100.96.002m9.572-4H15.8l-15.8 16 112.003.2 16-16.2zM118.432 35.778l-8.098 8.198-100.78-.18 7.918-8.018h100.96m9.572-4H15.8l-15.8 16 112.003.2 16-16.2zM118.432 59.98l-8.097 8.196-100.78-.18 7.917-8.018h100.96m9.572-4H15.8L0 71.98l112.003.202 16-16.2zM118.432 83.98l-8.098 8.198-100.78-.18 7.918-8.02h100.96m9.572-4H15.8L0 95.98l112.003.2 16-16.2zM118.432 107.98l-8.097 8.197-100.78-.18 7.917-8.02h100.96m9.572-3.997H15.8l-15.8 16 112.003.2 16-16.2z"/><path d="M95.02 24.044h2v16h-2zM95.02.093h2v16h-2zM95.02 48.02h2v16h-2zM95.02 72.03h2v16h-2zM95.02 95.956h2v16.002h-2zM95.02 119.965h2V128h-2zM31.02 24.044h2v16h-2zM31.02.093h2v16h-2zM31.02 48.02h2v16h-2zM31.02 72.03h2v16h-2zM31.02 95.956h2v16.002h-2zM31.02 119.965h2V128h-2z"/></svg>