<svg xmlns="http://www.w3.org/2000/svg" width="128" height="128" viewBox="0 0 128 128"><path d="M35 118c-7.168 0-13-5.832-13-13V13c0-7.168 5.832-13 13-13s13 5.832 13 13v92c0 7.168-5.832 13-13 13zM35 4c-4.963 0-9 4.038-9 9v92c0 4.962 4.037 9 9 9s9-4.038 9-9V13c0-4.962-4.037-9-9-9z"/><path d="M13 118c-7.168 0-13-5.832-13-13V13C0 5.832 5.832 0 13 0s13 5.832 13 13v92c0 7.168-5.832 13-13 13zM13 4c-4.963 0-9 4.038-9 9v92c0 4.962 4.037 9 9 9s9-4.038 9-9V13c0-4.962-4.037-9-9-9zM79 118c-7.168 0-13-5.832-13-13V13c0-7.168 5.832-13 13-13s13 5.832 13 13v92c0 7.168-5.832 13-13 13zM79 4c-4.963 0-9 4.038-9 9v92c0 4.962 4.037 9 9 9s9-4.038 9-9V13c0-4.962-4.037-9-9-9z"/><path d="M57 118c-7.168 0-13-5.832-13-13V13c0-7.168 5.832-13 13-13s13 5.832 13 13v92c0 7.168-5.832 13-13 13zM57 4c-4.963 0-9 4.038-9 9v92c0 4.962 4.037 9 9 9s9-4.038 9-9V13c0-4.962-4.037-9-9-9zM101 118c-7.168 0-13-5.832-13-13V13c0-7.168 5.832-13 13-13s13 5.832 13 13v92c0 7.168-5.832 13-13 13zm0-114c-4.963 0-9 4.038-9 9v92c0 4.962 4.037 9 9 9s9-4.038 9-9V13c0-4.962-4.037-9-9-9zM124 32h-9V16h9v16zm-7-2h5V18h-5v12zM16.668 128H9v-9h7.668v9zM11 126h3.668v-5H11v5zM105 128h-8v-9h8v9zm-6-2h4v-5h-4v5z"/></svg>