<svg xmlns="http://www.w3.org/2000/svg" width="128" height="128" viewBox="0 0 128 128"><path d="M120 4c2.206 0 4 1.794 4 4v112c0 2.206-1.794 4-4 4H8c-2.206 0-4-1.794-4-4V8c0-2.206 1.794-4 4-4h112m0-4H8C3.582 0 0 3.583 0 8v112c0 4.417 3.582 8 8 8h112c4.418 0 8-3.583 8-8V8c0-4.417-3.582-8-8-8z"/><path d="M64 14c27.57 0 50 22.43 50 50s-22.43 50-50 50-50-22.43-50-50 22.43-50 50-50m0-4c-29.822 0-54 24.176-54 54s24.178 54 54 54 54-24.177 54-54-24.178-54-54-54z"/><path d="M64 34c16.542 0 30 13.458 30 30S80.542 94 64 94 34 80.542 34 64s13.458-30 30-30m0-2c-17.673 0-32 14.328-32 32s14.327 32 32 32c17.674 0 32-14.327 32-32S81.674 32 64 32z"/></svg>