<svg xmlns="http://www.w3.org/2000/svg" width="128" height="128" viewBox="0 0 128 128"><path d="M104.93 58.005c-.39 11.412-2.398 23.54-5.542 33.155-3.02 9.238-8.578 20.785-17.984 23.84H46.66c-9.443-3-15.015-14.514-18.04-23.73-3.15-9.594-5.163-21.727-5.552-33.162l81.863-.103M109 54l-90 .112c0 21.7 6.494 59.087 27.075 64.888H82c20.507-5.902 27-43.357 27-65z"/><path d="M109.042 69C116.738 69 123 75.26 123 82.957c0 7.694-6.262 13.954-13.958 13.954h-.093l-.094.005c-1.214.056-2.392.084-3.502.084-1.263 0-2.455-.037-3.574-.11 4.1-10.51 5.913-22.104 6.616-27.89h.646m0-4c-1.394 0-4.25.005-4.25.005S103.215 85.38 96 100.148c2.575.566 5.703.852 9.354.852 1.175 0 2.404-.03 3.688-.09 9.92 0 17.958-8.04 17.958-17.953C127 73.04 118.96 65 109.042 65zM44.546 45.232c-.235-.515-5.688-12.72.096-22.546 4.76-8.086-.245-20.326-.296-20.45L48.04.7c.238.575 5.81 14.226.05 24.015-4.74 8.05.046 18.75.095 18.856l-3.64 1.662zM62.202 45.232c-.235-.515-5.688-12.72.096-22.546 4.76-8.086-.244-20.326-.296-20.45L65.695.7c.24.575 5.812 14.226.05 24.015-4.717 8.013.05 18.75.097 18.86l-3.64 1.657zM79.546 45.232c-.235-.515-5.688-12.72.096-22.546 4.76-8.086-.245-20.326-.295-20.45L83.037.7c.24.575 5.815 14.226.052 24.015-4.74 8.05.046 18.75.095 18.856l-3.64 1.662zM105 119v.334c0 2.573-2.242 4.666-5 4.666H28c-2.757 0-5-2.093-5-4.666V119h82m4-4H19v4.334c0 4.785 4.03 8.666 9 8.666h72c4.973 0 9-3.88 9-8.666V115z"/></svg>