<svg xmlns="http://www.w3.org/2000/svg" width="128" height="128" viewBox="0 0 128 128"><path d="M3 107h122v2H3zM13 117h102v2H13zM22 126h84v2H22zM0 95h18.285v4H0z"/><path d="M0 95h18.285v4H0zM109.715 95H128v4h-18.285zM62 33h4v18.286h-4zM26.896 103.5C26.43 101.297 26 99.31 26 97c0-19.772 18.23-38 38-38s38 18.228 38 38c0 2.646-.3 4.08-.88 6.5h4.26c.39-2.207.477-4.075.477-6.5 0-23.08-18.776-41.857-41.856-41.857S22.145 73.92 22.145 97c0 2.226.15 3.554.755 6.5h3.996zM94.27 40.573l3.465 2-9.14 15.837-3.466-2zM118.423 63.265l2 3.464-15.835 9.142-2-3.464z"/><path d="M109.715 95H128v4h-18.285zM9.573 63.265l15.836 9.143-2 3.464L7.572 66.73z"/><path d="M9.573 63.265l15.836 9.143-2 3.464L7.572 66.73zM33.733 40.573l9.143 15.835-3.465 2-9.142-15.835z"/><path d="M33.733 40.573l9.143 15.835-3.465 2-9.142-15.835z"/></svg>