<svg xmlns="http://www.w3.org/2000/svg" width="128" height="128" viewBox="0 0 128 128"><path d="M46.036 67.796l-.892-.535C25 55.175 25 54.433 25 53.084c0-2.72 2.992-3.718 6.16-4.773 3.272-1.09 6.62-1.09 9.895 0l27.9 9.3-22.92 10.186zM29.976 53c2.938 2.062 9.812 6.366 16.337 10.296l11.593-5.153-18.116-6.038c-2.455-.818-4.908-.818-7.363 0-1.127.375-1.908.668-2.45.895z"/><path d="M59.912 127.545c-1.61 0-2.854-.98-3.25-2.56-.372-1.487 1.656-13.552 6.03-35.873-9.007 2.933-33.806 10.954-40.065 12.41-1.026.238-2.08.36-3.134.36-3.97 0-7.383-1.683-8.692-4.286C10.038 96.083 1 75.8 1 73.372 1 69.7 5.294 69.7 7.128 69.7c.777 0 1.67.028 2.68.077 2.205.106 4.832 2.357 8.937 6.02 1.84 1.644 4.575 4.084 5.674 4.53 3-.405 22.06-8.916 39.07-17.066 1.26-.568 29.954-13.515 38.58-16.39 3.77-1.257 6.973-1.868 9.787-1.868 3.6 0 6.082 1 8.037 1.977 2.35 1.174 7.815 4.276 7.815 7.7 0 4.294-17.335 12.148-17.51 12.224-5.753 2.465-16.65 7.858-19.39 9.22-2.355 5.233-17.116 38.007-18.915 41.604-2.08 4.162-3.305 5.396-6.432 7.48-2.426 1.616-4.138 2.337-5.55 2.337zm0-4v2-2zm8.026-40.356l-.662 3.35c-2.432 12.32-6.147 32.01-6.642 36.806.515-.206 1.344-.623 2.61-1.468 2.597-1.73 3.32-2.432 5.073-5.94 1.878-3.755 18.967-41.725 19.14-42.108l.292-.65.636-.317c.55-.275 13.55-6.77 20.238-9.637 6.134-2.628 13.158-7.042 14.903-8.79-.54-.755-2.2-2.27-5.423-3.88-1.614-.81-3.49-1.556-6.248-1.556-2.378 0-5.166.544-8.522 1.663-8.432 2.81-37.86 16.09-38.156 16.223-8.514 4.08-36.746 17.45-40.89 17.453-.245 0-.47-.027-.683-.08-1.833-.46-4.054-2.38-7.524-5.48-2.023-1.806-5.41-4.83-6.498-5.012-.906-.042-1.733-.07-2.454-.07-1.004 0-1.612.057-1.975.117 1.145 3.616 7.534 18.635 9.22 21.985.51 1.01 2.476 2.083 5.12 2.083.748 0 1.498-.086 2.228-.256 7.357-1.71 42.615-13.257 42.97-13.374l3.248-1.064z"/></svg>