<svg xmlns="http://www.w3.org/2000/svg" width="128" height="128" viewBox="0 0 128 128"><path d="M15.5 79.5C6.953 79.5 0 72.547 0 64s6.953-15.5 15.5-15.5S31 55.453 31 64s-6.953 15.5-15.5 15.5zm0-27C9.16 52.5 4 57.66 4 64s5.16 11.5 11.5 11.5S27 70.34 27 64s-5.16-11.5-11.5-11.5zM64 31c-8.547 0-15.5-6.953-15.5-15.5S55.453 0 64 0s15.5 6.953 15.5 15.5S72.547 31 64 31zm0-27c-6.34 0-11.5 5.16-11.5 11.5S57.66 27 64 27s11.5-5.16 11.5-11.5S70.34 4 64 4zM64 128c-8.547 0-15.5-6.953-15.5-15.5S55.453 97 64 97s15.5 6.953 15.5 15.5S72.547 128 64 128zm0-27c-6.34 0-11.5 5.16-11.5 11.5S57.66 124 64 124s11.5-5.16 11.5-11.5S70.34 101 64 101zM112.5 79.5C103.953 79.5 97 72.547 97 64s6.953-15.5 15.5-15.5S128 55.453 128 64s-6.953 15.5-15.5 15.5zm0-27c-6.34 0-11.5 5.16-11.5 11.5s5.16 11.5 11.5 11.5S124 70.34 124 64s-5.16-11.5-11.5-11.5z"/><path d="M62 30h4v68h-4zM51.586 23.585l2.828 2.83-28 28-2.828-2.83zM101.585 72.585l2.83 2.828-28 28-2.83-2.83z"/></svg>