<?xml version="1.0" encoding="utf-8"?>
<!-- Generator: Adobe Illustrator 16.0.0, SVG Export Plug-In . SVG Version: 6.00 Build 0)  -->
<!DOCTYPE svg PUBLIC "-//W3C//DTD SVG 1.1//EN" "http://www.w3.org/Graphics/SVG/1.1/DTD/svg11.dtd">
<svg version="1.1" id="Ebene_1" xmlns="http://www.w3.org/2000/svg" xmlns:xlink="http://www.w3.org/1999/xlink" x="0px" y="0px"
	 width="640px" height="640px" viewBox="0 0 640 640" style="enable-background:new 0 0 640 640;" xml:space="preserve">
<g>
	<g>
		<defs>
			<path id="SVGID_1_" d="M106.562,44.971c7.924,14.103,39.198,60.088,126.015,96.446c7.726,3.23,31.149,12.771,31.386,12.869
				l29.055,11.807l-30.141-8.635c-1.011-0.293-24.87-7.142-32.884-10.076c-77.847-28.48-112.095-67.811-125.798-89.299
				c-3.467,22.205-4.851,47.448-2.991,73.935c23.508,21.15,62.954,49.497,120.984,69.101c4.055,1.371,16.205,5.691,16.326,5.743
				l15.08,5.357l-15.86-2.121c-0.548-0.07-13.539-1.805-17.94-2.864c-54.22-13.045-92.247-37.604-117.097-59.517
				c2.276,19.191,6.313,38.837,12.544,58.25c1.505,4.688,3.14,9.218,4.886,13.654c19.971,9.204,43.154,17.626,69.391,23.55
				c4.809,1.092,19.183,4.748,19.334,4.778l17.249,4.389l-17.769-1.079c-0.612-0.04-15.102-0.93-20.05-1.634
				c-23.091-3.287-43.847-9.2-62.208-16.358c29.469,61.429,84.363,96.033,158.18,123.561
				c84.083,31.375,86.992,112.489,86.992,112.489s23.072-16.878,43.235-82.425c22.322-72.524-1.956-137.21-28.405-182.628
				c-26.467-45.422-85.233-80.192-123.33-94.402c-38.119-14.225-80.981-45.311-80.981-45.311
				c-33.601-22.655-43.441-40.432-61.669-62.847C114.76,13.202,110.054,27.966,106.562,44.971"/>
		</defs>
		<clipPath id="SVGID_2_">
			<use xlink:href="#SVGID_1_"  style="overflow:visible;"/>
		</clipPath>
		
			<linearGradient id="SVGID_3_" gradientUnits="userSpaceOnUse" x1="-102.0898" y1="616.7676" x2="-97.5971" y2="616.7676" gradientTransform="matrix(72.6614 90.6962 90.6962 -72.6614 -48424.375 54095.2891)">
			<stop  offset="0" style="stop-color:#7CC099"/>
			<stop  offset="0.1296" style="stop-color:#7CC099"/>
			<stop  offset="0.3825" style="stop-color:#6FB494"/>
			<stop  offset="0.8506" style="stop-color:#4C9588"/>
			<stop  offset="1" style="stop-color:#408A83"/>
		</linearGradient>
		<polygon style="clip-path:url(#SVGID_2_);fill:url(#SVGID_3_);" points="304.878,-162.962 664.977,286.514 231.266,633.98 
			-128.828,184.505 		"/>
	</g>
	<g>
		<defs>
			<path id="SVGID_4_" d="M487.053,185.902c-22.844,7.415-27.48,36.426-29.3,48.936c-2.834,19.425,1.688,49.111,12.505,79.057
				c0,0,9.711-0.908,27.659-14.366c21.787-16.338,31.151-35.101,38.021-56.183c3.137-9.604,5.741-22.598,1.377-36.342
				c-2.938-9.257-21.448-22.695-39.836-22.695C493.961,184.308,490.447,184.797,487.053,185.902"/>
		</defs>
		<clipPath id="SVGID_5_">
			<use xlink:href="#SVGID_4_"  style="overflow:visible;"/>
		</clipPath>
		
			<linearGradient id="SVGID_6_" gradientUnits="userSpaceOnUse" x1="-109.3027" y1="615.1992" x2="-104.8106" y2="615.1992" gradientTransform="matrix(-16.9952 -4.4874 -4.4874 16.9952 1435.2812 -10687.8125)">
			<stop  offset="0" style="stop-color:#DBE6E0"/>
			<stop  offset="1" style="stop-color:#BCDED3"/>
		</linearGradient>
		<polygon style="clip-path:url(#SVGID_5_);fill:url(#SVGID_6_);" points="536.025,335.307 422.93,305.446 460.573,162.892 
			573.664,192.754 		"/>
	</g>
	<g>
		<defs>
			<path id="SVGID_7_" d="M424.851,158.436c-20.667,5.04-31.296,16.224-48.806,31.019c3.693,4.792,7.071,9.734,10.031,14.808
				c20.809,35.731,40.257,83.384,36.744,137.396c13.654-22.492,43.455-27.247,47.438-27.777
				c-10.816-29.941-15.339-59.619-12.505-79.043c1.819-12.51,6.456-41.521,29.3-48.936c19.071-6.206,41.739,6.948,48.595,17.683
				c-6.803-17.356-25.33-29.515-40.34-37.307c-14.115-7.334-30.397-10.689-46.047-10.689
				C440.79,155.589,432.514,156.571,424.851,158.436"/>
		</defs>
		<clipPath id="SVGID_8_">
			<use xlink:href="#SVGID_7_"  style="overflow:visible;"/>
		</clipPath>
		
			<linearGradient id="SVGID_9_" gradientUnits="userSpaceOnUse" x1="-102.0854" y1="619.5488" x2="-97.5924" y2="619.5488" gradientTransform="matrix(-8.2783 41.4291 41.4291 8.2783 -26038.5469 -741.1562)">
			<stop  offset="0" style="stop-color:#7CC099"/>
			<stop  offset="0.2568" style="stop-color:#78BC98"/>
			<stop  offset="0.5165" style="stop-color:#6CB193"/>
			<stop  offset="0.7767" style="stop-color:#589F8C"/>
			<stop  offset="1" style="stop-color:#408A83"/>
		</linearGradient>
		<polygon style="clip-path:url(#SVGID_8_);fill:url(#SVGID_9_);" points="571.4,162.732 529.521,372.327 340.293,334.518 
			382.173,124.923 		"/>
	</g>
	<g>
		<defs>
			<path id="SVGID_10_" d="M492.887,303.112c0.228-0.149,0.442-0.298,0.666-0.456C493.324,302.814,493.114,302.962,492.887,303.112"
				/>
		</defs>
		<clipPath id="SVGID_11_">
			<use xlink:href="#SVGID_10_"  style="overflow:visible;"/>
		</clipPath>
		
			<linearGradient id="SVGID_12_" gradientUnits="userSpaceOnUse" x1="-1021.5645" y1="932.877" x2="-1017.0664" y2="932.877" gradientTransform="matrix(-0.1475 0 0 0.1475 342.8743 165.2844)">
			<stop  offset="0" style="stop-color:#DBE6E0"/>
			<stop  offset="1" style="stop-color:#BCDED3"/>
		</linearGradient>
		<rect x="492.887" y="302.656" style="clip-path:url(#SVGID_11_);fill:url(#SVGID_12_);" width="0.666" height="0.456"/>
	</g>
	<g>
		<defs>
			<path id="SVGID_13_" d="M536.311,230.309c-6.777,21.956-7.97,31.73-27.616,57.916c-4.495,6.001-9.873,10.747-15.142,14.431
				c1.399-0.965,2.843-1.991,4.364-3.128c21.787-16.338,31.151-35.101,38.021-56.183c3.137-9.604,5.741-22.598,1.377-36.342
				c-0.346-1.085-0.916-2.242-1.667-3.417C538.714,211.413,539.402,220.293,536.311,230.309"/>
		</defs>
		<clipPath id="SVGID_14_">
			<use xlink:href="#SVGID_13_"  style="overflow:visible;"/>
		</clipPath>
		
			<linearGradient id="SVGID_15_" gradientUnits="userSpaceOnUse" x1="-116.7446" y1="617.7715" x2="-112.2549" y2="617.7715" gradientTransform="matrix(-10.2578 0 0 10.2578 -657.8984 -6083.8594)">
			<stop  offset="0" style="stop-color:#DBE6E0"/>
			<stop  offset="1" style="stop-color:#BCDED3"/>
		</linearGradient>
		<rect x="493.553" y="203.585" style="clip-path:url(#SVGID_14_);fill:url(#SVGID_15_);" width="48.126" height="99.071"/>
	</g>
	<g>
		<defs>
			<path id="SVGID_16_" d="M470.71,313.814c0,0-0.172,0.026-0.452,0.066c0,0.008,0,0.008,0,0.013c0,0,7.597-0.747,21.733-10.177
				C480.895,311.082,470.71,313.814,470.71,313.814 M491.991,303.717c0.294-0.192,0.597-0.395,0.896-0.605
				C492.588,303.322,492.285,303.524,491.991,303.717"/>
		</defs>
		<clipPath id="SVGID_17_">
			<use xlink:href="#SVGID_16_"  style="overflow:visible;"/>
		</clipPath>
		
			<linearGradient id="SVGID_18_" gradientUnits="userSpaceOnUse" x1="-126.8721" y1="627.1133" x2="-122.3804" y2="627.1133" gradientTransform="matrix(-5.0391 0 0 5.0391 -146.4336 -2851.582)">
			<stop  offset="0" style="stop-color:#DBE6E0"/>
			<stop  offset="1" style="stop-color:#BCDED3"/>
		</linearGradient>
		<rect x="470.253" y="303.112" style="clip-path:url(#SVGID_17_);fill:url(#SVGID_18_);" width="22.634" height="10.782"/>
	</g>
	<g>
		<defs>
			<path id="SVGID_19_" d="M483.731,229.686c-0.819,1.222-1.442,2.582-1.842,4.082c-1.93,7.323,2.435,14.832,9.755,16.758
				c2.992,0.795,6.022,0.508,8.676-0.588c-4.123,31.167-26.295,55.776-31.168,60.851c0.526,1.645,0.701,2.171,1.105,3.106
				c1.157-0.22,1.943-0.312,4.189-1.07c7.847-8.479,30.11-35.663,31.511-69.479c1.78-7.242-2.562-14.615-9.8-16.529
				c-1.166-0.305-2.347-0.454-3.5-0.454C489.338,226.361,486.184,227.574,483.731,229.686"/>
		</defs>
		<clipPath id="SVGID_20_">
			<use xlink:href="#SVGID_19_"  style="overflow:visible;"/>
		</clipPath>
		
			<linearGradient id="SVGID_21_" gradientUnits="userSpaceOnUse" x1="-85.8799" y1="614.4492" x2="-81.3884" y2="614.4492" gradientTransform="matrix(8.2831 0 0 -8.2831 1180.4961 5359.6562)">
			<stop  offset="0" style="stop-color:#6AA583"/>
			<stop  offset="1" style="stop-color:#4C9E96"/>
		</linearGradient>
		<rect x="469.152" y="226.361" style="clip-path:url(#SVGID_20_);fill:url(#SVGID_21_);" width="38.586" height="87.533"/>
	</g>
	<g>
		<defs>
			<path id="SVGID_22_" d="M259.531,423.199c6.536,56.995,33.688,142.457,124.896,215.098c0,0,45.192-69.26,1.633-145.856
				c-43.569-76.593-107.042-102.13-129.237-109.911C255.901,398.479,258.369,413.066,259.531,423.199"/>
		</defs>
		<clipPath id="SVGID_23_">
			<use xlink:href="#SVGID_22_"  style="overflow:visible;"/>
		</clipPath>
		
			<linearGradient id="SVGID_24_" gradientUnits="userSpaceOnUse" x1="-96.6797" y1="624.5625" x2="-92.1883" y2="624.5625" gradientTransform="matrix(-18.272 14.6382 14.6382 18.272 -10528.4453 -9516.6719)">
			<stop  offset="0" style="stop-color:#7CC099"/>
			<stop  offset="1" style="stop-color:#57BAAE"/>
		</linearGradient>
		<polygon style="clip-path:url(#SVGID_23_);fill:url(#SVGID_24_);" points="554.421,538.316 323.81,723.065 131.1,482.515 
			361.711,297.765 		"/>
	</g>
	<g>
		<defs>
			<path id="SVGID_25_" d="M259.531,423.199c5.56,48.433,26.03,117.411,87.99,181.621c10.641-24.716,24.703-75.588-6.369-130.205
				c-25.448-44.723-57.503-75.554-84.33-92.086C256.415,397.083,258.459,413.83,259.531,423.199"/>
		</defs>
		<clipPath id="SVGID_26_">
			<use xlink:href="#SVGID_25_"  style="overflow:visible;"/>
		</clipPath>
		
			<linearGradient id="SVGID_27_" gradientUnits="userSpaceOnUse" x1="-101.9146" y1="608.8184" x2="-97.423" y2="608.8184" gradientTransform="matrix(23.8131 0.5407 0.5407 -23.8131 2352.0469 15045.2969)">
			<stop  offset="0" style="stop-color:#7CC099"/>
			<stop  offset="0.2326" style="stop-color:#76BA97"/>
			<stop  offset="0.55" style="stop-color:#64AB90"/>
			<stop  offset="0.9148" style="stop-color:#489186"/>
			<stop  offset="1" style="stop-color:#408A83"/>
		</linearGradient>
		<polygon style="clip-path:url(#SVGID_26_);fill:url(#SVGID_27_);" points="256.474,379.907 377.27,382.648 372.163,607.452 
			251.369,604.706 		"/>
	</g>
	<g>
		<defs>
			<path id="SVGID_28_" d="M256.877,382.547c19.815,6.961,72.362,28.046,114.369,86.769c-0.013-0.263-0.039-0.71-0.074-1.236
				c-0.772-10.255-4.886-81.839-82.891-110.941c-9.168-3.417-22.077-7.255-30.645-10.936
				C256.329,357.265,256.869,369.239,256.877,382.547"/>
		</defs>
		<clipPath id="SVGID_29_">
			<use xlink:href="#SVGID_28_"  style="overflow:visible;"/>
		</clipPath>
		
			<linearGradient id="SVGID_30_" gradientUnits="userSpaceOnUse" x1="-110.7183" y1="609.541" x2="-106.2267" y2="609.541" gradientTransform="matrix(6.8356 -8.1464 -8.1464 -6.8356 6025.0781 3685.5859)">
			<stop  offset="0" style="stop-color:#4C9E96"/>
			<stop  offset="0.4863" style="stop-color:#489790"/>
			<stop  offset="1" style="stop-color:#408A83"/>
		</linearGradient>
		<polygon style="clip-path:url(#SVGID_29_);fill:url(#SVGID_30_);" points="195.707,418.444 303.808,289.61 431.869,397.066 
			323.765,525.898 		"/>
	</g>
	<g>
		<defs>
			<path id="SVGID_31_" d="M156.621,98.622c18.644,14.156,43.38,29.16,75.957,42.795c7.726,3.23,31.149,12.771,31.386,12.869
				l29.055,11.807l-30.141-8.635c-1.011-0.293-24.87-7.142-32.884-10.076c-30.425-11.126-54.172-23.917-72.649-36.645
				c1.752,22.359,5.858,45.538,12.963,68.467c15.301,7.878,32.557,15.384,51.881,21.913c4.055,1.371,16.205,5.691,16.326,5.743
				l15.08,5.357l-15.86-2.121c-0.548-0.07-13.539-1.805-17.94-2.864c-16.424-3.957-31.337-8.979-44.873-14.652
				c8.328,21.595,19.694,39.417,33.381,55.223c0.318,0.09,0.524,0.145,0.551,0.145l17.249,4.389l-14.575-0.899
				c31.123,34.414,73.255,59.736,118.249,95.783c60.434,48.415,41.472,122.095,41.472,122.095s3.387-2.842,6.79-6.604
				c8.005-9.399,22.717-31.222,36.445-75.82c22.322-72.524-1.956-137.21-28.405-182.628c-26.467-45.422-85.233-80.192-123.33-94.402
				c-38.119-14.225-80.981-45.311-80.981-45.311c-9.407-6.338-16.929-12.288-23.311-18.069
				C156.572,62.741,155.858,80.333,156.621,98.622"/>
		</defs>
		<clipPath id="SVGID_32_">
			<use xlink:href="#SVGID_31_"  style="overflow:visible;"/>
		</clipPath>
		
			<linearGradient id="SVGID_33_" gradientUnits="userSpaceOnUse" x1="-101.3135" y1="616.9961" x2="-96.8219" y2="616.9961" gradientTransform="matrix(-31.8588 36.2641 36.2641 31.8588 -25235.2383 -15805.625)">
			<stop  offset="0" style="stop-color:#7CC099"/>
			<stop  offset="0.3184" style="stop-color:#77BF9C"/>
			<stop  offset="0.6751" style="stop-color:#6ABDA3"/>
			<stop  offset="1" style="stop-color:#57BAAE"/>
		</linearGradient>
		<polygon style="clip-path:url(#SVGID_32_);fill:url(#SVGID_33_);" points="646.457,230.667 314.422,608.615 -53.797,285.128 
			278.236,-92.823 		"/>
	</g>
</g>
<g>
</g>
<g>
</g>
<g>
</g>
<g>
</g>
<g>
</g>
<g>
</g>
<g>
</g>
<g>
</g>
<g>
</g>
<g>
</g>
<g>
</g>
<g>
</g>
<g>
</g>
<g>
</g>
<g>
</g>
</svg>
