<?xml version="1.0" encoding="utf-8"?>
<!-- Generator: Adobe Illustrator 16.0.0, SVG Export Plug-In . SVG Version: 6.00 Build 0)  -->
<!DOCTYPE svg PUBLIC "-//W3C//DTD SVG 1.1//EN" "http://www.w3.org/Graphics/SVG/1.1/DTD/svg11.dtd">
<svg version="1.1" id="Layer_1" xmlns="http://www.w3.org/2000/svg" xmlns:xlink="http://www.w3.org/1999/xlink" x="0px" y="0px"
	 width="512px" height="512px" viewBox="0 0 512 512" enable-background="new 0 0 512 512" xml:space="preserve">
<g>
	<g>
		<path fill="#696969" d="M193.252,410.85c-0.703,0.47-2.065,1.069-4.087,1.802c-2.022,0.733-4.381,1.099-7.076,1.099
			c-2.755,0-5.348-0.439-7.779-1.318c-2.432-0.879-4.557-2.241-6.373-4.087c-1.817-1.847-3.252-4.146-4.307-6.9
			c-1.055-2.754-1.582-6.034-1.582-9.844c0-3.341,0.497-6.401,1.494-9.186c0.996-2.782,2.446-5.186,4.351-7.207
			c1.904-2.021,4.233-3.604,6.988-4.747c2.753-1.143,5.859-1.714,9.317-1.714c3.809,0,7.133,0.279,9.976,0.835
			c2.842,0.558,5.23,1.07,7.164,1.538v40.784c0,7.031-1.817,12.13-5.45,15.294c-3.634,3.164-9.141,4.746-16.524,4.746
			c-2.872,0-5.582-0.235-8.13-0.703c-2.549-0.47-4.762-1.026-6.636-1.67l1.494-7.12c1.64,0.645,3.647,1.216,6.021,1.715
			c2.373,0.497,4.848,0.747,7.427,0.747c4.863,0,8.364-0.968,10.503-2.901c2.138-1.934,3.208-5.01,3.208-9.229V410.85z
			 M193.164,376.922c-0.821-0.233-1.92-0.453-3.296-0.659c-1.377-0.205-3.238-0.308-5.582-0.308c-4.395,0-7.779,1.437-10.152,4.307
			c-2.373,2.872-3.56,6.68-3.56,11.427c0,2.637,0.336,4.893,1.011,6.768c0.673,1.876,1.582,3.428,2.725,4.658
			s2.461,2.14,3.955,2.725c1.495,0.587,3.033,0.879,4.615,0.879c2.167,0,4.16-0.308,5.977-0.923
			c1.815-0.615,3.252-1.332,4.307-2.153V376.922z"/>
		<path fill="#696969" d="M275.258,414.102c-1.877,0.47-4.352,0.967-7.428,1.494s-6.636,0.791-10.679,0.791
			c-3.516,0-6.476-0.514-8.878-1.538c-2.403-1.024-4.337-2.475-5.801-4.351c-1.465-1.875-2.52-4.088-3.164-6.637
			c-0.646-2.549-0.967-5.375-0.967-8.481v-25.666h8.174v23.908c0,5.567,0.879,9.552,2.637,11.953
			c1.758,2.404,4.716,3.604,8.878,3.604c0.879,0,1.786-0.029,2.725-0.088c0.937-0.058,1.815-0.132,2.637-0.22
			c0.819-0.088,1.566-0.176,2.241-0.264c0.673-0.088,1.156-0.189,1.45-0.308v-38.587h8.175V414.102z"/>
	</g>
	<g>
		<path fill="#696969" d="M312.702,415.42v-66.801l8.175-1.406v23.38c1.523-0.585,3.149-1.039,4.878-1.362
			c1.728-0.321,3.441-0.483,5.142-0.483c3.633,0,6.65,0.514,9.054,1.538c2.402,1.026,4.32,2.462,5.757,4.308
			c1.436,1.846,2.446,4.058,3.033,6.636c0.585,2.579,0.879,5.421,0.879,8.525v25.666h-8.175v-23.907c0-2.813-0.19-5.215-0.571-7.208
			c-0.382-1.991-1.011-3.604-1.89-4.834s-2.052-2.123-3.516-2.681c-1.466-0.557-3.282-0.835-5.45-0.835
			c-0.879,0-1.788,0.059-2.725,0.176c-0.938,0.118-1.832,0.25-2.681,0.396c-0.85,0.146-1.612,0.308-2.285,0.483
			c-0.675,0.176-1.158,0.322-1.45,0.439v37.971H312.702z"/>
	</g>
	<g>
		<path fill="#696969" d="M73.532,492.476h2.593v8.661c-0.214,0.071-0.521,0.151-0.922,0.24c-0.401,0.09-0.865,0.179-1.39,0.268
			c-0.526,0.089-1.101,0.164-1.724,0.227c-0.624,0.062-1.256,0.094-1.898,0.094c-1.301,0-2.486-0.214-3.555-0.642
			s-1.987-1.051-2.753-1.871c-0.766-0.819-1.359-1.826-1.777-3.021c-0.419-1.193-0.628-2.566-0.628-4.116
			c0-1.551,0.236-2.928,0.708-4.13c0.472-1.203,1.109-2.214,1.911-3.034c0.802-0.819,1.742-1.443,2.82-1.871
			c1.078-0.428,2.232-0.642,3.461-0.642c0.837,0,1.582,0.054,2.232,0.16c0.65,0.107,1.208,0.232,1.671,0.374
			c0.463,0.144,0.842,0.285,1.136,0.428c0.294,0.144,0.494,0.25,0.601,0.321l-0.829,2.165c-0.517-0.338-1.203-0.619-2.058-0.842
			s-1.729-0.334-2.62-0.334c-0.945,0-1.804,0.169-2.58,0.508s-1.435,0.828-1.978,1.47c-0.544,0.642-0.967,1.422-1.27,2.339
			c-0.303,0.918-0.455,1.947-0.455,3.088c0,1.104,0.129,2.111,0.388,3.021c0.258,0.909,0.65,1.688,1.176,2.339
			c0.525,0.65,1.176,1.154,1.951,1.51c0.775,0.357,1.688,0.535,2.74,0.535c0.749,0,1.386-0.04,1.911-0.12
			c0.526-0.08,0.904-0.156,1.136-0.228V492.476z"/>
		<path fill="#696969" d="M87.913,501.591v-18.524H99.22v2.219h-8.714v5.507h7.752v2.165h-7.752v6.415h9.383v2.219H87.913z"/>
		<path fill="#696969" d="M123.973,501.591c-0.303-0.802-0.588-1.591-0.855-2.365c-0.267-0.775-0.544-1.564-0.829-2.366h-8.394
			l-1.684,4.731h-2.7c0.712-1.96,1.381-3.773,2.005-5.439c0.624-1.666,1.234-3.248,1.831-4.745c0.597-1.497,1.189-2.927,1.777-4.29
			c0.588-1.363,1.203-2.713,1.845-4.05h2.379c0.642,1.337,1.256,2.687,1.844,4.05c0.588,1.363,1.181,2.793,1.778,4.29
			c0.597,1.497,1.207,3.079,1.831,4.745c0.624,1.666,1.292,3.479,2.005,5.439H123.973z M121.541,494.721
			c-0.57-1.55-1.136-3.051-1.697-4.504c-0.562-1.452-1.146-2.847-1.751-4.184c-0.624,1.337-1.216,2.731-1.777,4.184
			c-0.562,1.453-1.119,2.954-1.671,4.504H121.541z"/>
		<path fill="#696969" d="M146.133,493.839c0.285,0.356,0.646,0.824,1.083,1.403c0.437,0.579,0.886,1.221,1.35,1.925
			s0.922,1.439,1.377,2.205c0.454,0.767,0.842,1.506,1.163,2.219h-2.833c-0.356-0.677-0.744-1.363-1.163-2.059
			c-0.419-0.694-0.842-1.358-1.27-1.991c-0.428-0.632-0.851-1.225-1.27-1.777c-0.419-0.553-0.798-1.033-1.136-1.443
			c-0.231,0.018-0.468,0.026-0.708,0.026c-0.241,0-0.486,0-0.735,0h-2.326v7.244h-2.593v-18.257c0.73-0.179,1.546-0.299,2.446-0.361
			s1.724-0.094,2.473-0.094c2.602,0,4.584,0.49,5.948,1.471s2.045,2.441,2.045,4.384c0,1.229-0.325,2.281-0.976,3.154
			C148.355,492.761,147.398,493.411,146.133,493.839z M142.203,485.151c-1.105,0-1.951,0.026-2.54,0.08v6.977h1.845
			c0.891,0,1.693-0.044,2.406-0.134c0.712-0.089,1.314-0.258,1.804-0.508c0.49-0.249,0.869-0.602,1.136-1.056
			c0.267-0.454,0.401-1.056,0.401-1.805c0-0.694-0.134-1.273-0.401-1.737c-0.268-0.463-0.628-0.828-1.083-1.096
			c-0.455-0.268-0.989-0.454-1.604-0.562C143.553,485.205,142.898,485.151,142.203,485.151z"/>
		<path fill="#696969" d="M181.898,501.992c-1.212,0-2.263-0.188-3.154-0.562s-1.622-0.887-2.192-1.537s-0.994-1.421-1.27-2.312
			c-0.276-0.891-0.415-1.854-0.415-2.887v-11.628h2.593V494.4c0,1.854,0.41,3.199,1.229,4.036c0.819,0.838,1.889,1.257,3.208,1.257
			c0.659,0,1.261-0.103,1.805-0.308c0.543-0.205,1.011-0.521,1.403-0.949c0.392-0.428,0.695-0.976,0.909-1.644
			c0.214-0.669,0.321-1.466,0.321-2.393v-11.334h2.593v11.628c0,1.033-0.138,1.996-0.414,2.887
			c-0.277,0.892-0.705,1.662-1.283,2.312c-0.58,0.65-1.31,1.163-2.192,1.537C184.157,501.805,183.11,501.992,181.898,501.992z"/>
		<path fill="#696969" d="M205.956,482.879c2.602,0,4.602,0.495,6.001,1.483c1.399,0.989,2.099,2.464,2.099,4.425
			c0,1.068-0.192,1.982-0.575,2.739c-0.383,0.758-0.936,1.373-1.657,1.845c-0.722,0.473-1.6,0.815-2.633,1.029
			c-1.034,0.214-2.201,0.32-3.501,0.32h-2.059v6.87h-2.593v-18.257c0.73-0.179,1.546-0.299,2.446-0.361
			S205.207,482.879,205.956,482.879z M206.169,485.151c-1.105,0-1.951,0.026-2.54,0.08v7.271h1.952c0.891,0,1.693-0.058,2.406-0.174
			c0.712-0.115,1.314-0.312,1.804-0.588c0.49-0.275,0.869-0.654,1.136-1.136c0.267-0.481,0.401-1.096,0.401-1.845
			c0-0.712-0.138-1.301-0.415-1.764c-0.276-0.464-0.65-0.833-1.123-1.109s-1.021-0.468-1.644-0.575
			C207.523,485.205,206.864,485.151,206.169,485.151z"/>
		<path fill="#696969" d="M242.844,501.591v-7.432c-1.229-1.906-2.388-3.786-3.475-5.64s-2.112-3.671-3.074-5.453h3.047
			c0.677,1.461,1.435,2.945,2.272,4.45c0.837,1.507,1.702,2.954,2.593,4.344c0.873-1.39,1.729-2.837,2.566-4.344
			c0.838-1.505,1.604-2.989,2.299-4.45h2.887c-0.962,1.782-1.987,3.595-3.074,5.439s-2.236,3.712-3.448,5.601v7.484H242.844z"/>
		<path fill="#696969" d="M260.272,492.315c0-1.586,0.235-2.985,0.708-4.197c0.472-1.211,1.113-2.223,1.925-3.033
			c0.811-0.812,1.755-1.422,2.833-1.832c1.078-0.409,2.223-0.614,3.436-0.614c1.193,0,2.32,0.205,3.381,0.614
			c1.061,0.41,1.991,1.021,2.794,1.832c0.802,0.811,1.438,1.822,1.911,3.033c0.472,1.212,0.708,2.611,0.708,4.197
			s-0.236,2.984-0.708,4.196c-0.473,1.212-1.109,2.224-1.911,3.034c-0.803,0.812-1.733,1.421-2.794,1.831s-2.188,0.615-3.381,0.615
			c-1.213,0-2.357-0.205-3.436-0.615s-2.022-1.02-2.833-1.831c-0.812-0.811-1.453-1.822-1.925-3.034
			C260.508,495.3,260.272,493.901,260.272,492.315z M262.999,492.315c0,1.122,0.142,2.143,0.428,3.061
			c0.284,0.918,0.69,1.697,1.216,2.339s1.167,1.136,1.925,1.483c0.757,0.348,1.607,0.521,2.553,0.521
			c0.944,0,1.791-0.174,2.539-0.521c0.749-0.348,1.386-0.842,1.911-1.483s0.932-1.421,1.217-2.339s0.428-1.938,0.428-3.061
			c0-1.123-0.143-2.143-0.428-3.061s-0.691-1.698-1.217-2.339c-0.525-0.642-1.162-1.137-1.911-1.484
			c-0.748-0.347-1.595-0.521-2.539-0.521c-0.945,0-1.796,0.174-2.553,0.521c-0.758,0.348-1.399,0.843-1.925,1.484
			c-0.525,0.641-0.932,1.421-1.216,2.339C263.141,490.173,262.999,491.192,262.999,492.315z"/>
		<path fill="#696969" d="M296.225,501.992c-1.212,0-2.264-0.188-3.154-0.562c-0.892-0.374-1.622-0.887-2.191-1.537
			c-0.571-0.65-0.994-1.421-1.271-2.312c-0.276-0.891-0.414-1.854-0.414-2.887v-11.628h2.593V494.4c0,1.854,0.41,3.199,1.229,4.036
			c0.82,0.838,1.889,1.257,3.208,1.257c0.659,0,1.261-0.103,1.805-0.308c0.543-0.205,1.011-0.521,1.403-0.949
			c0.392-0.428,0.695-0.976,0.908-1.644c0.214-0.669,0.321-1.466,0.321-2.393v-11.334h2.593v11.628c0,1.033-0.138,1.996-0.414,2.887
			c-0.276,0.892-0.704,1.662-1.283,2.312s-1.31,1.163-2.192,1.537C298.483,501.805,297.437,501.992,296.225,501.992z"/>
		<path fill="#696969" d="M324.426,493.839c0.285,0.356,0.646,0.824,1.083,1.403s0.886,1.221,1.35,1.925
			c0.463,0.704,0.923,1.439,1.377,2.205c0.454,0.767,0.842,1.506,1.163,2.219h-2.834c-0.356-0.677-0.744-1.363-1.163-2.059
			c-0.419-0.694-0.842-1.358-1.27-1.991c-0.428-0.632-0.851-1.225-1.27-1.777s-0.798-1.033-1.136-1.443
			c-0.232,0.018-0.468,0.026-0.709,0.026c-0.24,0-0.485,0-0.734,0h-2.326v7.244h-2.593v-18.257c0.73-0.179,1.546-0.299,2.446-0.361
			c0.899-0.062,1.724-0.094,2.473-0.094c2.602,0,4.584,0.49,5.947,1.471s2.045,2.441,2.045,4.384c0,1.229-0.325,2.281-0.976,3.154
			C326.648,492.761,325.691,493.411,324.426,493.839z M320.497,485.151c-1.105,0-1.952,0.026-2.54,0.08v6.977h1.845
			c0.891,0,1.692-0.044,2.405-0.134c0.713-0.089,1.314-0.258,1.805-0.508c0.49-0.249,0.869-0.602,1.136-1.056
			c0.268-0.454,0.401-1.056,0.401-1.805c0-0.694-0.134-1.273-0.401-1.737c-0.267-0.463-0.628-0.828-1.082-1.096
			c-0.455-0.268-0.989-0.454-1.604-0.562C321.847,485.205,321.191,485.151,320.497,485.151z"/>
		<path fill="#696969" d="M364.949,483.066h2.594v18.524h-2.594v-8.554h-9.062v8.554h-2.593v-18.524h2.593v7.726h9.062V483.066z"/>
		<path fill="#696969" d="M378.93,492.315c0-1.586,0.235-2.985,0.708-4.197c0.472-1.211,1.113-2.223,1.925-3.033
			c0.811-0.812,1.755-1.422,2.833-1.832c1.078-0.409,2.223-0.614,3.436-0.614c1.193,0,2.32,0.205,3.381,0.614
			c1.061,0.41,1.991,1.021,2.794,1.832c0.802,0.811,1.438,1.822,1.911,3.033c0.472,1.212,0.708,2.611,0.708,4.197
			s-0.236,2.984-0.708,4.196c-0.473,1.212-1.109,2.224-1.911,3.034c-0.803,0.812-1.733,1.421-2.794,1.831s-2.188,0.615-3.381,0.615
			c-1.213,0-2.357-0.205-3.436-0.615s-2.022-1.02-2.833-1.831c-0.812-0.811-1.453-1.822-1.925-3.034
			C379.165,495.3,378.93,493.901,378.93,492.315z M381.656,492.315c0,1.122,0.142,2.143,0.428,3.061
			c0.284,0.918,0.69,1.697,1.216,2.339s1.167,1.136,1.925,1.483c0.757,0.348,1.607,0.521,2.553,0.521
			c0.944,0,1.791-0.174,2.539-0.521c0.749-0.348,1.386-0.842,1.911-1.483s0.932-1.421,1.217-2.339s0.428-1.938,0.428-3.061
			c0-1.123-0.143-2.143-0.428-3.061s-0.691-1.698-1.217-2.339c-0.525-0.642-1.162-1.137-1.911-1.484
			c-0.748-0.347-1.595-0.521-2.539-0.521c-0.945,0-1.796,0.174-2.553,0.521c-0.758,0.348-1.399,0.843-1.925,1.484
			c-0.525,0.641-0.932,1.421-1.216,2.339C381.798,490.173,381.656,491.192,381.656,492.315z"/>
		<path fill="#696969" d="M416.272,499.024c-0.179-0.428-0.414-0.971-0.709-1.63c-0.294-0.659-0.61-1.372-0.948-2.139
			c-0.339-0.767-0.7-1.555-1.083-2.366c-0.383-0.811-0.744-1.577-1.082-2.299c-0.339-0.722-0.655-1.367-0.949-1.938
			s-0.53-1.007-0.708-1.311c-0.197,2.104-0.357,4.38-0.481,6.83c-0.125,2.45-0.232,4.923-0.321,7.418h-2.539
			c0.071-1.604,0.151-3.221,0.24-4.852s0.191-3.234,0.308-4.812s0.24-3.114,0.374-4.611s0.281-2.913,0.441-4.25h2.272
			c0.48,0.784,0.997,1.711,1.55,2.78s1.104,2.188,1.657,3.354s1.087,2.335,1.604,3.502c0.517,1.167,0.988,2.231,1.416,3.194
			c0.428-0.963,0.9-2.027,1.417-3.194s1.052-2.335,1.604-3.502c0.553-1.167,1.105-2.285,1.658-3.354
			c0.552-1.069,1.068-1.996,1.55-2.78h2.272c0.605,5.97,1.06,12.145,1.363,18.524h-2.54c-0.089-2.495-0.196-4.968-0.32-7.418
			c-0.125-2.45-0.285-4.727-0.481-6.83c-0.178,0.304-0.414,0.74-0.708,1.311s-0.61,1.216-0.949,1.938s-0.699,1.488-1.082,2.299
			c-0.384,0.812-0.745,1.6-1.083,2.366c-0.339,0.767-0.655,1.479-0.949,2.139s-0.53,1.202-0.708,1.63H416.272z"/>
		<path fill="#696969" d="M438.913,501.591v-18.524h11.308v2.219h-8.715v5.507h7.752v2.165h-7.752v6.415h9.383v2.219H438.913z"/>
	</g>
	<g>
		<defs>
			<path id="SVGID_1_" d="M165.325,27.41c3.368,5.995,16.663,25.543,53.569,40.999c3.284,1.374,13.241,5.429,13.342,5.471
				l12.351,5.02l-12.812-3.671c-0.43-0.124-10.572-3.036-13.979-4.283c-33.093-12.109-47.651-28.827-53.477-37.961
				c-1.474,9.439-2.062,20.17-1.271,31.43c9.993,8.991,26.762,21.041,51.43,29.375c1.724,0.583,6.889,2.419,6.94,2.441l6.411,2.278
				l-6.743-0.901c-0.233-0.03-5.755-0.768-7.626-1.218c-23.049-5.545-39.214-15.985-49.778-25.301
				c0.968,8.158,2.684,16.51,5.333,24.762c0.639,1.993,1.335,3.918,2.077,5.805c8.489,3.913,18.345,7.493,29.498,10.011
				c2.044,0.464,8.155,2.019,8.219,2.032l7.333,1.866l-7.553-0.459c-0.26-0.017-6.42-0.396-8.523-0.694
				c-9.816-1.397-18.639-3.911-26.444-6.954c12.527,26.114,35.862,40.822,67.241,52.526c35.745,13.337,36.981,47.818,36.981,47.818
				s9.808-7.174,18.379-35.039c9.489-30.83-0.831-58.328-12.075-77.635c-11.251-19.309-36.232-34.089-52.428-40.131
				c-16.204-6.047-34.425-19.261-34.425-19.261c-14.284-9.63-18.467-17.188-26.215-26.716
				C168.81,13.903,166.81,20.182,165.325,27.41"/>
		</defs>
		<clipPath id="SVGID_2_">
			<use xlink:href="#SVGID_1_"  overflow="visible"/>
		</clipPath>
		
			<linearGradient id="SVGID_3_" gradientUnits="userSpaceOnUse" x1="-164.4985" y1="553.8076" x2="-162.5892" y2="553.8076" gradientTransform="matrix(72.6614 90.6962 90.6962 -72.6614 -38114.7422 55177.0078)">
			<stop  offset="0" style="stop-color:#7CC099"/>
			<stop  offset="0.1296" style="stop-color:#7CC099"/>
			<stop  offset="0.3825" style="stop-color:#6FB494"/>
			<stop  offset="0.8506" style="stop-color:#4C9588"/>
			<stop  offset="1" style="stop-color:#408A83"/>
		</linearGradient>
		<polygon clip-path="url(#SVGID_2_)" fill="url(#SVGID_3_)" points="249.63,-60.982 402.707,130.089 218.337,277.799 
			65.261,86.726 		"/>
	</g>
	<g>
		<defs>
			<path id="SVGID_4_" d="M327.072,87.32c-9.711,3.152-11.682,15.484-12.456,20.8c-1.204,8.259,0.718,20.879,5.316,33.608
				c0,0,4.128-0.386,11.758-6.106c9.262-6.946,13.242-14.921,16.162-23.884c1.333-4.083,2.441-9.606,0.586-15.449
				c-1.249-3.935-9.118-9.647-16.935-9.647C330.009,86.643,328.516,86.85,327.072,87.32"/>
		</defs>
		<clipPath id="SVGID_5_">
			<use xlink:href="#SVGID_4_"  overflow="visible"/>
		</clipPath>
		
			<linearGradient id="SVGID_6_" gradientUnits="userSpaceOnUse" x1="-164.9541" y1="549.2637" x2="-163.0447" y2="549.2637" gradientTransform="matrix(-16.9952 -4.4874 -4.4874 16.9952 7.6362 -9957.0586)">
			<stop  offset="0" style="stop-color:#DBE6E0"/>
			<stop  offset="1" style="stop-color:#BCDED3"/>
		</linearGradient>
		<polygon clip-path="url(#SVGID_5_)" fill="url(#SVGID_6_)" points="347.891,150.833 299.813,138.139 315.815,77.538 
			363.891,90.232 		"/>
	</g>
	<g>
		<defs>
			<path id="SVGID_7_" d="M300.63,75.644c-8.786,2.142-13.304,6.897-20.747,13.187c1.569,2.037,3.006,4.137,4.264,6.294
				c8.846,15.189,17.113,35.447,15.62,58.407c5.805-9.562,18.473-11.582,20.166-11.811c-4.599-12.726-6.521-25.342-5.316-33.601
				c0.774-5.316,2.745-17.648,12.456-20.8c8.107-2.639,17.743,2.953,20.657,7.517c-2.892-7.378-10.768-12.548-17.148-15.859
				c-6-3.117-12.922-4.544-19.574-4.544C307.406,74.434,303.888,74.852,300.63,75.644"/>
		</defs>
		<clipPath id="SVGID_8_">
			<use xlink:href="#SVGID_7_"  overflow="visible"/>
		</clipPath>
		
			<linearGradient id="SVGID_9_" gradientUnits="userSpaceOnUse" x1="-165.6206" y1="553.8945" x2="-163.7112" y2="553.8945" gradientTransform="matrix(-8.2783 41.4291 41.4291 8.2783 -23996.957 2351.7432)">
			<stop  offset="0" style="stop-color:#7CC099"/>
			<stop  offset="0.2568" style="stop-color:#78BC98"/>
			<stop  offset="0.5165" style="stop-color:#6CB193"/>
			<stop  offset="0.7767" style="stop-color:#589F8C"/>
			<stop  offset="1" style="stop-color:#408A83"/>
		</linearGradient>
		<polygon clip-path="url(#SVGID_8_)" fill="url(#SVGID_9_)" points="362.928,77.47 345.125,166.569 264.685,150.496 
			282.487,61.397 		"/>
	</g>
	<g>
		<defs>
			<path id="SVGID_10_" d="M329.552,137.146c0.097-0.064,0.188-0.128,0.283-0.194C329.738,137.018,329.648,137.082,329.552,137.146"
				/>
		</defs>
		<clipPath id="SVGID_11_">
			<use xlink:href="#SVGID_10_"  overflow="visible"/>
		</clipPath>
		
			<linearGradient id="SVGID_12_" gradientUnits="userSpaceOnUse" x1="-405.6094" y1="175.582" x2="-403.7024" y2="175.582" gradientTransform="matrix(-0.1475 0 0 0.1475 270.0079 111.1508)">
			<stop  offset="0" style="stop-color:#DBE6E0"/>
			<stop  offset="1" style="stop-color:#BCDED3"/>
		</linearGradient>
		<rect x="329.552" y="136.952" clip-path="url(#SVGID_11_)" fill="url(#SVGID_12_)" width="0.283" height="0.194"/>
	</g>
	<g>
		<defs>
			<path id="SVGID_13_" d="M348.012,106.197c-2.881,9.333-3.389,13.486-11.74,24.619c-1.911,2.552-4.197,4.569-6.437,6.136
				c0.595-0.411,1.208-0.847,1.855-1.33c9.262-6.946,13.242-14.921,16.162-23.884c1.333-4.083,2.441-9.606,0.586-15.449
				c-0.147-0.461-0.39-0.953-0.709-1.453C349.033,98.165,349.326,101.939,348.012,106.197"/>
		</defs>
		<clipPath id="SVGID_14_">
			<use xlink:href="#SVGID_13_"  overflow="visible"/>
		</clipPath>
		
			<linearGradient id="SVGID_15_" gradientUnits="userSpaceOnUse" x1="-167.8916" y1="547.084" x2="-165.9823" y2="547.084" gradientTransform="matrix(-10.2578 0 0 10.2578 -1372.7646 -5495.9863)">
			<stop  offset="0" style="stop-color:#DBE6E0"/>
			<stop  offset="1" style="stop-color:#BCDED3"/>
		</linearGradient>
		<rect x="329.835" y="94.837" clip-path="url(#SVGID_14_)" fill="url(#SVGID_15_)" width="20.459" height="42.115"/>
	</g>
	<g>
		<defs>
			<path id="SVGID_16_" d="M320.124,141.696c0,0-0.072,0.01-0.191,0.025c0,0.006,0,0.006,0,0.007c0,0,3.229-0.317,9.239-4.325
				C324.454,140.534,320.124,141.696,320.124,141.696 M329.172,137.404c0.125-0.084,0.253-0.17,0.38-0.258
				C329.425,137.234,329.297,137.32,329.172,137.404"/>
		</defs>
		<clipPath id="SVGID_17_">
			<use xlink:href="#SVGID_16_"  overflow="visible"/>
		</clipPath>
		
			<linearGradient id="SVGID_18_" gradientUnits="userSpaceOnUse" x1="-170.5591" y1="542.6641" x2="-168.6499" y2="542.6641" gradientTransform="matrix(-5.0391 0 0 5.0391 -529.917 -2595.1006)">
			<stop  offset="0" style="stop-color:#DBE6E0"/>
			<stop  offset="1" style="stop-color:#BCDED3"/>
		</linearGradient>
		<rect x="319.931" y="137.146" clip-path="url(#SVGID_17_)" fill="url(#SVGID_18_)" width="9.621" height="4.583"/>
	</g>
	<g>
		<defs>
			<path id="SVGID_19_" d="M325.66,105.933c-0.349,0.519-0.613,1.097-0.783,1.735c-0.82,3.113,1.035,6.305,4.147,7.124
				c1.271,0.339,2.56,0.217,3.688-0.25c-1.752,13.249-11.178,23.71-13.249,25.868c0.224,0.699,0.298,0.923,0.47,1.32
				c0.492-0.094,0.825-0.132,1.78-0.455c3.336-3.604,12.801-15.16,13.396-29.536c0.757-3.079-1.089-6.213-4.166-7.027
				c-0.495-0.129-0.997-0.193-1.487-0.193C328.043,104.519,326.703,105.035,325.66,105.933"/>
		</defs>
		<clipPath id="SVGID_20_">
			<use xlink:href="#SVGID_19_"  overflow="visible"/>
		</clipPath>
		
			<linearGradient id="SVGID_21_" gradientUnits="userSpaceOnUse" x1="-159.7852" y1="561.0303" x2="-157.876" y2="561.0303" gradientTransform="matrix(8.2831 0 0 -8.2831 1642.9736 4770.1777)">
			<stop  offset="0" style="stop-color:#6AA583"/>
			<stop  offset="1" style="stop-color:#4C9E96"/>
		</linearGradient>
		<rect x="319.463" y="104.519" clip-path="url(#SVGID_20_)" fill="url(#SVGID_21_)" width="16.402" height="37.21"/>
	</g>
	<g>
		<defs>
			<path id="SVGID_22_" d="M230.353,188.195c2.778,24.226,14.322,60.559,53.093,91.438c0,0,19.212-29.442,0.694-62.003
				c-18.521-32.561-45.505-43.416-54.938-46.724C228.81,177.686,229.858,183.888,230.353,188.195"/>
		</defs>
		<clipPath id="SVGID_23_">
			<use xlink:href="#SVGID_22_"  overflow="visible"/>
		</clipPath>
		
			<linearGradient id="SVGID_24_" gradientUnits="userSpaceOnUse" x1="-164.458" y1="553.3125" x2="-162.5487" y2="553.3125" gradientTransform="matrix(-18.272 14.6382 14.6382 18.272 -10822.6992 -7490.3594)">
			<stop  offset="0" style="stop-color:#7CC099"/>
			<stop  offset="1" style="stop-color:#57BAAE"/>
		</linearGradient>
		<polygon clip-path="url(#SVGID_23_)" fill="url(#SVGID_24_)" points="355.712,237.13 257.678,315.668 175.755,213.409 
			273.789,134.871 		"/>
	</g>
	<g>
		<defs>
			<path id="SVGID_25_" d="M230.353,188.195c2.363,20.586,11.064,49.913,37.404,77.208c4.523-10.507,10.502-32.132-2.707-55.352
				c-10.817-19.01-24.444-32.117-35.849-39.146C229.027,177.094,229.896,184.212,230.353,188.195"/>
		</defs>
		<clipPath id="SVGID_26_">
			<use xlink:href="#SVGID_25_"  overflow="visible"/>
		</clipPath>
		
			<linearGradient id="SVGID_27_" gradientUnits="userSpaceOnUse" x1="-164.0508" y1="554.2217" x2="-162.1416" y2="554.2217" gradientTransform="matrix(23.8131 0.5407 0.5407 -23.8131 3835.0371 13504.0098)">
			<stop  offset="0" style="stop-color:#7CC099"/>
			<stop  offset="0.2326" style="stop-color:#76BA97"/>
			<stop  offset="0.55" style="stop-color:#64AB90"/>
			<stop  offset="0.9148" style="stop-color:#489186"/>
			<stop  offset="1" style="stop-color:#408A83"/>
		</linearGradient>
		<polygon clip-path="url(#SVGID_26_)" fill="url(#SVGID_27_)" points="229.053,169.789 280.402,170.954 278.232,266.521 
			226.882,265.354 		"/>
	</g>
	<g>
		<defs>
			<path id="SVGID_28_" d="M229.224,170.913c8.423,2.96,30.761,11.924,48.619,36.885c-0.006-0.113-0.017-0.302-0.032-0.526
				c-0.328-4.358-2.076-34.79-35.237-47.16c-3.897-1.454-9.384-3.084-13.027-4.649C228.991,160.165,229.221,165.256,229.224,170.913
				"/>
		</defs>
		<clipPath id="SVGID_29_">
			<use xlink:href="#SVGID_28_"  overflow="visible"/>
		</clipPath>
		
			<linearGradient id="SVGID_30_" gradientUnits="userSpaceOnUse" x1="-161.3843" y1="555.6445" x2="-159.4748" y2="555.6445" gradientTransform="matrix(6.8356 -8.1464 -8.1464 -6.8356 5878.3457 2670.7332)">
			<stop  offset="0" style="stop-color:#4C9E96"/>
			<stop  offset="0.4863" style="stop-color:#489790"/>
			<stop  offset="1" style="stop-color:#408A83"/>
		</linearGradient>
		<polygon clip-path="url(#SVGID_29_)" fill="url(#SVGID_30_)" points="203.221,186.175 249.175,131.408 303.613,177.086 
			257.658,231.854 		"/>
	</g>
	<g>
		<defs>
			<path id="SVGID_31_" d="M186.605,50.217c7.925,6.018,18.441,12.396,32.29,18.192c3.284,1.374,13.241,5.429,13.342,5.471
				l12.351,5.02l-12.812-3.671c-0.43-0.124-10.572-3.036-13.979-4.283c-12.934-4.729-23.028-10.167-30.883-15.578
				c0.745,9.505,2.49,19.358,5.511,29.105c6.505,3.349,13.84,6.54,22.055,9.315c1.724,0.583,6.889,2.419,6.94,2.441l6.411,2.278
				l-6.743-0.901c-0.233-0.03-5.755-0.768-7.626-1.218c-6.982-1.682-13.322-3.817-19.076-6.229c3.54,9.18,8.372,16.756,14.19,23.475
				c0.135,0.038,0.223,0.062,0.234,0.062l7.333,1.866l-6.196-0.384c13.23,14.631,31.142,25.397,50.268,40.719
				c25.69,20.582,17.63,51.902,17.63,51.902s1.439-1.208,2.887-2.807c3.402-3.996,9.656-13.272,15.492-32.231
				c9.489-30.83-0.831-58.328-12.075-77.635c-11.251-19.309-36.232-34.089-52.428-40.131c-16.204-6.047-34.425-19.261-34.425-19.261
				c-3.999-2.694-7.196-5.225-9.91-7.681C186.584,34.964,186.28,42.443,186.605,50.217"/>
		</defs>
		<clipPath id="SVGID_32_">
			<use xlink:href="#SVGID_31_"  overflow="visible"/>
		</clipPath>
		
			<linearGradient id="SVGID_33_" gradientUnits="userSpaceOnUse" x1="-164.9038" y1="552.6553" x2="-162.9943" y2="552.6553" gradientTransform="matrix(-31.8588 36.2641 36.2641 31.8588 -25018.9883 -11543.3086)">
			<stop  offset="0" style="stop-color:#7CC099"/>
			<stop  offset="0.3184" style="stop-color:#77BF9C"/>
			<stop  offset="0.6751" style="stop-color:#6ABDA3"/>
			<stop  offset="1" style="stop-color:#57BAAE"/>
		</linearGradient>
		<polygon clip-path="url(#SVGID_32_)" fill="url(#SVGID_33_)" points="394.835,106.349 253.687,267.016 97.156,129.5 
			238.305,-31.166 		"/>
	</g>
</g>
</svg>
