<?xml version="1.0" encoding="utf-8"?>
<!-- Generator: Adobe Illustrator 16.0.0, SVG Export Plug-In . SVG Version: 6.00 Build 0)  -->
<!DOCTYPE svg PUBLIC "-//W3C//DTD SVG 1.1//EN" "http://www.w3.org/Graphics/SVG/1.1/DTD/svg11.dtd">
<svg version="1.1" id="Layer_1" xmlns="http://www.w3.org/2000/svg" xmlns:xlink="http://www.w3.org/1999/xlink" x="0px" y="0px"
	 width="512px" height="512px" viewBox="0 0 512 512" style="enable-background:new 0 0 512 512;" xml:space="preserve">
<style type="text/css">
<![CDATA[
  .st0{fill:#010101;}
]]>
</style>
<path class="st0" d="M450.1,255.95c0,8.784-36.166,34.85-36.166,34.85L227.033,413c-2.699,1.7-5.1,2.9-8.199,2.9
	c-8.301,0-15.5-6.5-15.5-16.5v-64L85.033,413c-2.8,1.7-5.1,2.9-8.199,2.9c-8.301,0-15-6.5-15-16.5v-286c0-10,6.6-17.4,14.899-17.4
	c3.101,0,5.601,0.6,8.101,2.3l118.5,78.2v-63.1c0-10,7.1-17,15.399-17c3,0,5.601,0.6,8.101,2.3l187.1,122.5
	C413.934,221.2,450.1,247.166,450.1,255.95z"/>
</svg>
