<?xml version="1.0" encoding="utf-8"?>
<!-- Generator: Adobe Illustrator 16.0.0, SVG Export Plug-In . SVG Version: 6.00 Build 0)  -->
<!DOCTYPE svg PUBLIC "-//W3C//DTD SVG 1.1//EN" "http://www.w3.org/Graphics/SVG/1.1/DTD/svg11.dtd">
<svg version="1.1" id="Layer_1" xmlns="http://www.w3.org/2000/svg" xmlns:xlink="http://www.w3.org/1999/xlink" x="0px" y="0px"
	 width="512px" height="512px" viewBox="0 0 512 512" style="enable-background:new 0 0 512 512;" xml:space="preserve">
<style type="text/css">
<![CDATA[
  .st0{fill:#010101;}
]]>
</style>
<path class="st0" d="M96,221.2L283.1,98.7c2.5-1.7,5.101-2.3,8.101-2.3c8.3,0,15.399,7,15.399,17v63.1l118.5-78.2
	c2.5-1.7,5-2.3,8.101-2.3c8.3,0,14.899,7.4,14.899,17.4v286c0,10-6.699,16.5-15,16.5c-3.1,0-5.399-1.2-8.199-2.9L306.6,335.4v64
	c0,10-7.199,16.5-15.5,16.5c-3.1,0-5.5-1.2-8.199-2.9L96,290.8c0,0-36.167-26.065-36.167-34.85S96,221.2,96,221.2z"/>
</svg>
