<?xml version="1.0" encoding="utf-8"?>
<!-- Generator: Adobe Illustrator 16.0.0, SVG Export Plug-In . SVG Version: 6.00 Build 0)  -->
<!DOCTYPE svg PUBLIC "-//W3C//DTD SVG 1.1//EN" "http://www.w3.org/Graphics/SVG/1.1/DTD/svg11.dtd">
<svg version="1.1" id="Layer_1" xmlns="http://www.w3.org/2000/svg" xmlns:xlink="http://www.w3.org/1999/xlink" x="0px" y="0px"
   width="512px" height="512px" viewBox="0 0 512 512" style="enable-background:new 0 0 512 512;" xml:space="preserve">
<style type="text/css">
<![CDATA[
  .st0{fill:#010101;}
]]>
</style>
<path class="st0" d="M146.4,96h8.1c6.7,0,12.2,5,12.2,11.7v113.5L353.799,98.7c2.5-1.7,5.102-2.3,8.102-2.3
	c8.299,0,15.398,7,15.398,17v286c0,10-7.199,16.5-15.5,16.5c-3.1,0-5.5-1.2-8.199-2.9L166.7,290.8v113c0,6.7-5.4,12.2-12.2,12.2
	h-8.1c-6.7,0-11.7-5.5-11.7-12.2V107.7C134.7,101,139.6,96,146.4,96z"/>
</svg>
